<?xml version="1.0" encoding="utf-8"?>
<!-- Generator: Adobe Illustrator 25.3.0, SVG Export Plug-In . SVG Version: 6.00 Build 0)  -->
<svg version="1.1" id="Capa_1" xmlns="http://www.w3.org/2000/svg" xmlns:xlink="http://www.w3.org/1999/xlink" x="0px" y="0px"
	 width="235.4px" height="526.3px" viewBox="0 0 235.4 526.3" style="enable-background:new 0 0 235.4 526.3;" xml:space="preserve"
	>
<style type="text/css">
	.st0{fill:url(#SVGID_1_);}
	.st1{fill:#af454b;}
</style>
<g>
	<linearGradient id="SVGID_1_" gradientUnits="userSpaceOnUse" x1="236.5663" y1="260.5279" x2="-0.6784" y2="260.5279">
		<stop  offset="0" style="stop-color:#DB2329"/>
		<stop  offset="0.4944" style="stop-color:#A03B8E"/>
		<stop  offset="1" style="stop-color:#3D3B8F"/>
		<stop  offset="1" style="stop-color:#05AA96"/>
	</linearGradient>
	<path class="st0" d="M46.9,520c0,0-0.1-0.1-0.1-0.1L6.7,481V47L23.2,1.5L50.5,1l22.3,15.4c0.2,0.1,0.4,0.2,0.6,0.2h29.4l24.3,31.5
		c0,0.1,0.1,0.1,0.2,0.2l24.5,20.3l-2.3,24.9c0,0.4,0.1,0.7,0.5,0.9l35.4,22.6l3.4,51.3c0,0.1,0,0.2,0.1,0.4l18,37.9l-3.3,29.1
		c0,0.2,0,0.4,0.1,0.5l17.3,38.2L199,320.8c-0.2,0.3-0.1,0.7,0.1,1l26.3,36.1l-18,48.6l-34.9,50.4l-67.3,42.1L46.9,520
		C47,520,46.9,520,46.9,520z M8.1,480.7c0,0.2,0.1,0.4,0.3,0.6l38.3,37.2c0.2,0.2,0.4,0.3,0.7,0.3c0.1,0,0.2,0,0.3-0.1
		c0.2-0.1,0.4-0.2,0.5-0.3c0.1,0,0.1,0,0.2,0c0.1,0,0.2,0,0.4-0.1c0.1-0.1,0.3-0.2,0.4-0.3l0.3-0.3c0.1,0.1,0.3,0.1,0.5,0.1
		c0.1,0,0.2,0,0.3-0.1l53.6-19.3c0.1,0,0.2-0.1,0.3-0.2c0,0,0,0,0.1,0c0.1,0,0.2,0,0.3-0.1c0.1,0,0.2-0.1,0.2-0.1l1.2-0.8
		c0.2-0.1,0.3-0.3,0.4-0.4l0.1-0.2c0.1,0,0.1,0,0.2,0c0.2,0,0.4,0,0.5-0.2l61.5-38.5c0.2-0.2,0.4-0.4,0.5-0.7l0.4,0
		c0.2,0,0.3-0.1,0.5-0.2l0.2-0.1c0.1-0.1,0.3-0.2,0.3-0.4c0.2,0,0.3-0.1,0.5-0.2l0.3-0.2c0.2-0.1,0.4-0.3,0.4-0.6
		c0.1-0.1,0.3-0.2,0.3-0.3l1.1-1.6c0.1-0.1,0.1-0.2,0.1-0.3l0.2-1c0.3,0,0.6-0.2,0.8-0.4l30.9-44.6c0.1-0.2,0.2-0.3,0.2-0.5
		c0.2-0.1,0.3-0.2,0.4-0.3l0.4-0.6c0-0.1,0.1-0.1,0.1-0.2l0.2-0.6c0.1-0.2,0.1-0.3,0-0.5c0.1-0.1,0.2-0.3,0.3-0.4l16.4-44.3
		c0.1-0.2,0.1-0.4,0-0.6c0.2-0.1,0.3-0.3,0.4-0.5l0.1-0.4c0.1-0.3,0.1-0.7-0.1-0.9l-24.9-34.2c-0.1-0.2-0.3-0.3-0.5-0.3
		c0-0.2-0.1-0.4-0.2-0.5l-0.5-0.7c-0.1-0.1-0.2-0.2-0.3-0.3c0-0.1,0-0.1-0.1-0.2l21.6-46.2c0.1-0.2,0.1-0.5,0-0.7
		c0.1-0.3,0.1-0.6,0-0.9l-1.4-3c-0.1-0.2-0.2-0.3-0.4-0.4l-0.2-0.1c0.1-0.2,0.1-0.5,0-0.7l-14.7-32.6c-0.1-0.1-0.1-0.2-0.2-0.3
		c0-0.1,0-0.2-0.1-0.4c0,0,0,0,0,0c0-0.1,0.1-0.2,0.1-0.3l3.1-27.3c0-0.2,0-0.4-0.1-0.5c0.1-0.1,0.2-0.3,0.2-0.5l0-0.2
		c0-0.3-0.1-0.6-0.2-0.8c0-0.2,0-0.4-0.1-0.5L188,169.4c-0.1-0.1-0.1-0.2-0.2-0.3c0-0.1,0-0.2-0.1-0.3l0-0.1c0-0.2-0.1-0.3-0.1-0.4
		c0.1-0.1,0.1-0.3,0.1-0.4l-3.2-48.8c0-0.2-0.1-0.3-0.2-0.5c0.1-0.2,0.1-0.3,0.1-0.5c0-0.3-0.2-0.6-0.5-0.8l-34.3-21.9
		c-0.1-0.1-0.3-0.1-0.4-0.1c-0.1-0.1-0.2-0.2-0.3-0.3l-0.4-0.3c0,0-0.1-0.1-0.1-0.1l2.1-22.8c0-0.3-0.1-0.5-0.2-0.7l0.1-0.2
		c0.1-0.1,0.2-0.3,0.2-0.5l0.1-0.8c0-0.3-0.1-0.6-0.3-0.8c-0.1-0.1-0.3-0.2-0.4-0.2c-0.1-0.2-0.2-0.3-0.3-0.4l-22.7-18.9
		c-0.1-0.1-0.2-0.1-0.3-0.2c0-0.1-0.1-0.1-0.1-0.2l-0.2-0.2c-0.1-0.1-0.2-0.2-0.3-0.3c0-0.1-0.1-0.3-0.2-0.4L102.6,18
		c-0.2-0.2-0.5-0.4-0.8-0.4c-0.2,0-0.4,0-0.5,0.1c-0.1-0.1-0.3-0.1-0.5-0.1H72.9c-0.1,0-0.1,0-0.2,0l-0.6-0.4
		C72.1,17.1,72,17,71.8,17c-0.1-0.1-0.2-0.2-0.3-0.3L50.8,2.4c-0.2-0.1-0.4-0.2-0.6-0.2c0,0-0.1,0-0.1,0C49.9,2.1,49.7,2,49.5,2
		c0,0-24.7,0.4-24.7,0.4c-0.4,0-0.7,0.2-0.9,0.5c-0.1,0.1-0.1,0.2-0.1,0.3c-0.2,0.1-0.3,0.3-0.4,0.5L8.3,45.3
		c-0.1,0.2-0.1,0.4,0,0.6c-0.1,0.1-0.3,0.3-0.3,0.4L7.7,47c0,0.1-0.1,0.2-0.1,0.3v0.5c0,0.2,0,0.3,0.1,0.5c-0.1,0.1-0.1,0.3-0.1,0.5
		v77.8c0,0.3,0.1,0.5,0.3,0.7l-0.1,0.2c-0.1,0.2-0.1,0.3-0.1,0.5v0.7c0,0.1,0,0.3,0.1,0.4c-0.1,0.1-0.1,0.3-0.1,0.4v0.9
		c0,0.2,0,0.3,0.1,0.5c-0.1,0.1-0.1,0.3-0.1,0.5v46.2c0,0.2,0,0.3,0.1,0.5c-0.1,0.1-0.1,0.3-0.1,0.5v1.1c0,0.2,0,0.3,0.1,0.4
		c-0.1,0.1-0.1,0.3-0.1,0.4v48.3c0,0.2,0,0.3,0.1,0.4c-0.1,0.1-0.1,0.3-0.1,0.4v1.1c0,0.2,0,0.3,0.1,0.5c-0.1,0.1-0.1,0.3-0.1,0.5
		v78.7c0,0.2,0.1,0.4,0.2,0.6c-0.1,0.2-0.2,0.4-0.2,0.5v0.7c0,0.1,0,0.3,0.1,0.4c0,0.1-0.1,0.2-0.1,0.4v0.7c0,0.2,0.1,0.4,0.2,0.5
		c-0.1,0.2-0.2,0.3-0.2,0.5v55c0,0.1,0,0.3,0.1,0.4c-0.1,0.1-0.1,0.3-0.1,0.4v0.2c0,0.1,0,0.3,0.1,0.4c-0.1,0.1-0.1,0.2-0.1,0.4V438
		c0,0.2,0.1,0.4,0.2,0.5c-0.1,0.2-0.2,0.3-0.2,0.5v0.3c0,0.1,0,0.3,0.1,0.4c0,0.1-0.1,0.2-0.1,0.4c0,0.1,0,0.3,0.1,0.4
		c-0.1,0.1-0.1,0.3-0.1,0.4v38.1c0,0.2,0.1,0.4,0.2,0.6c-0.1,0.2-0.1,0.5,0.1,0.7C7.9,480.5,8,480.6,8.1,480.7z"/>
	<path class="st1" d="M50.8,0L22.5,0.5L5.8,46.5l-0.1,0.2v434.6l0,0l-0.2,0.1l0.2-0.1l40.4,39.1l-0.4,0.9l0.6-0.7l0.4,0.4l58.9-21.2
		l67.6-42.3l35-50.5l0.1-0.2l18.2-49.3l-26.6-36.6l21.9-46.8l-17.4-38.6l3.3-29.4l-18.1-38.1l-3.4-51.8l-35.8-22.8l2.3-25.4
		l-24.9-20.7l-24.6-31.9H73.4L50.8,0L50.8,0z M40.1,30.1L24.8,3.4L49.5,3L40.1,30.1L40.1,30.1z M40.8,30.3l9.4-27.1l20.7,14.3
		L40.8,30.3L40.8,30.3z M9.3,45.6L24.3,4.1l15.4,26.7L9.3,45.6L9.3,45.6z M61.5,63.9L40.8,31.1L71.7,18l0.6,0.4L61.5,63.9L61.5,63.9
		z M62.7,64.2l39.1-45.7h0.1L125,48.6L62.7,64.2L62.7,64.2z M62.4,63.5l10.6-44.9h27.8L62.4,63.5L62.4,63.5z M39.9,74.1L8.6,47.8
		v-0.5l0.3-0.7l31-15.1V74.1L39.9,74.1z M40.6,74.3V32.2l20.5,32.5l-8.7,4.1L40.6,74.3L40.6,74.3z M8.6,126.6V48.8L39.7,75
		L8.6,126.6L8.6,126.6z M104.6,77.7L63,64.9l62.4-15.7l0.2,0.2L104.6,77.7L104.6,77.7z M105.6,77.6L126.2,50L149,68.9L105.6,77.6
		L105.6,77.6z M105.7,126.7L66.8,117L40.8,75.1L53,69.3l8.5-4l44.3,60.1l0,0.9l-0.2-0.1L105.7,126.7L105.7,126.7z M105.8,124.2
		L62.6,65.6l41.5,12.8l-0.3,0.4l0.5-0.1L105.8,124.2L105.8,124.2z M106.9,125.7l-0.3-0.5l-1.4-46.8l44.5-8.9l-0.1,0.8L106.9,125.7
		L106.9,125.7z M108.3,125.1l41.2-53.4l-2.2,23.4L108.3,125.1L108.3,125.1z M65.9,116.9l-28-1.3l2.6-39.5L65.9,116.9L65.9,116.9z
		 M8.6,128.7v-0.7l31.1-51.6l-2.6,39.3L8.6,128.7L8.6,128.7z M142.9,156.6l-36-29.4l41.1-31.7l0.4,0.3L142.9,156.6L142.9,156.6z
		 M143.6,156.3l5.4-60.1l34.3,21.9l0,0L143.6,156.3L143.6,156.3z M40.5,153.8l-2.6-37.5l28,1.3L40.5,153.8L40.5,153.8z M39.8,154.1
		L8.6,130.5v-0.9l28.5-13L39.8,154.1L39.8,154.1z M40.9,154.5l25.8-36.8l38.6,9.6l-27.6,27.2l-0.7,0l0,0H40.9L40.9,154.5z
		 M186.6,167.9l-42.7-10.8l39.5-38L186.6,167.9L186.6,167.9z M111.5,155.7l-32.7-1.2l26.8-26.3l0.5-0.4L111.5,155.7L111.5,155.7z
		 M142.1,156.9l-29.8-1.1l-5.5-27.7L142.1,156.9L142.1,156.9z M8.6,177.6v-46.2l31,23.5L8.6,177.6L8.6,177.6z M49.7,204.9l-9.1-49.6
		h36.6L49.7,204.9L49.7,204.9z M122.1,209.2l-43.4-54l33,1.2L122.1,209.2L122.1,209.2z M49,205.2L8.6,179.6v-1.1l31.3-23L49,205.2
		L49,205.2z M90.8,208.2l-40.7-2.6l27.6-49.8L90.8,208.2L90.8,208.2z M121.9,210.2l-30.3-1.9l-13-51.9L121.9,210.2L121.9,210.2z
		 M122.8,209.3l-10.4-52.8l30.2,1.1L122.8,209.3L122.8,209.3z M123.5,209.7l19.9-52l43.3,10.9l0,0.1l0,0.3l0,0.1L123.5,209.7
		L123.5,209.7z M124.1,210.2l63-40.4l17.4,36.6L124.1,210.2L124.1,210.2z M8.6,228.7v-48.3l40.2,25.5L8.6,228.7L8.6,228.7z
		 M102,253.1l-51.4-46.7L91,209L102,253.1L102,253.1z M51.1,263.3L8.6,230.7v-1.1l40.6-23L51.1,263.3L51.1,263.3z M51.9,263.6
		L50,206.8l51.9,47.1L51.9,263.6L51.9,263.6z M166,235.6l-42-24.6l80.7-3.8l0,0.2L166,235.6L166,235.6z M167.1,235.6l37.4-27.3
		l-3.1,27.3H167.1L167.1,235.6z M102.8,253.1l-11-44l29.8,1.9l-0.2,0.1l0.8,0L102.8,253.1L102.8,253.1z M103.3,253.6l19.5-42.3
		l0.6,0.7l-0.1-0.7l41.8,24.5L103.3,253.6L103.3,253.6z M8.6,310.3v-78.7l42.3,32.5L8.6,310.3L8.6,310.3z M183.2,247.2l-16-10.8
		h34.2l0,0L183.2,247.2L183.2,247.2z M135.6,275.3l30.5-38.8l16.4,11.1L135.6,275.3L135.6,275.3z M134,276.1l-30.5-21.8l61.5-17.6
		L134,276.1L134,276.1z M216.5,269.7l-32.6-22.1l17.9-10.6L216.5,269.7L216.5,269.7z M135.5,276.2l47.7-28.2l33.9,23l1.4,3
		L135.5,276.2L135.5,276.2z M102.3,254.7l-1.3,54.9l-48.7-45.3l49.7-9.6l0,0.1L102.3,254.7L102.3,254.7z M101.7,309.5l1.3-54.6
		l30.4,21.8L101.7,309.5L101.7,309.5z M49.7,311.2l2.2-46.3l48.5,45.2L49.7,311.2L49.7,311.2z M8.6,312.1v-0.7l42.4-46.3l-2.2,46.1
		L8.6,312.1L8.6,312.1z M196.3,321.1L135.2,277l83.2-2.2l-21.7,46.3L196.3,321.1L196.3,321.1z M142.9,322.9L102,310.3l31.8-32.9
		L142.9,322.9L142.9,322.9z M143.7,323l-9.1-45.6l60.5,43.6L143.7,323L143.7,323z M47.7,353l1.9-41l50.6-1.1L47.7,353L47.7,353z
		 M127.3,364.9L102,311l40.9,12.6L127.3,364.9L127.3,364.9z M126.7,365.4l-50.2-7.6l24.8-46.5L126.7,365.4L126.7,365.4z M75.6,357.7
		l-27.5-4.2l51.9-41.7L75.6,357.7L75.6,357.7z M47,352.9L8.6,313.5v-0.7l40.2-0.9L47,352.9L47,352.9z M8.6,369.5v-55l38,39.1
		L8.6,369.5L8.6,369.5z M143.9,324l0-0.2l52.8-2l0,0.1L128,365l15.6-41.1L143.9,324L143.9,324z M191.8,376.7l-63.5-11l68.8-43.2
		l0.5,0.7L191.8,376.7L191.8,376.7z M192.6,376.5l5.7-52.5l24.9,34.2l-0.1,0.4L192.6,376.5L192.6,376.5z M62.2,382.9l-14.2-28.7
		l27.3,4.1L62.2,382.9L62.2,382.9z M62.1,384.5L8.6,370.6v-0.2l38.5-16.1L62.1,384.5L62.1,384.5z M62.2,384.5l13.9-26l49.5,7.5
		L62.2,384.5L62.2,384.5z M206.2,404.1l-13.6-26.8l30-17.6L206.2,404.1L206.2,404.1z M143.6,414.9l-15.7-48.5l63.4,11L143.6,414.9
		L143.6,414.9z M76.3,425.2l-13.7-40.1l63.6-18.5L76.3,425.2L76.3,425.2z M77.2,425.3l50-58.7l15.7,48.6l-65.4,10.1l0.1-0.1
		L77.2,425.3L77.2,425.3z M8.6,438v-66.7l52.8,13.7L8.6,438L8.6,438z M191.5,378.1l-7.9,31.2l-38.8,5.6l0,0l-0.2,0L191.5,378.1
		L191.5,378.1z M184.4,409.2l7.8-31l13.7,26.8l-0.2,0.6l-0.4,0.6L184.4,409.2L184.4,409.2z M8.6,439.4v-0.3L62,385.6l13.7,40.1
		L8.6,439.4L8.6,439.4z M173.8,451.6l10.5-41.6l20.4-3L173.8,451.6L173.8,451.6z M171.5,455L144,415.8l39.4-5.7l-10.9,43.2
		L171.5,455L171.5,455z M111.6,436.9L77.8,426l64-9.9L111.6,436.9L111.6,436.9z M170.7,455.7l-39.6-12.7l12.4-26.8l27.5,39.3
		L170.7,455.7L170.7,455.7z M130.4,442.8l-9.1-2.9l20.8-22.4L130.4,442.8L130.4,442.8z M120.5,439.7l-8-2.5l28.3-19.4L120.5,439.7
		L120.5,439.7z M74.4,462.4l2.2-36l34.3,11L74.4,462.4L74.4,462.4z M42.8,452L8.6,440.2v0l66.1-13.5L42.8,452L42.8,452z M73.6,462.7
		l-30-10.4l32.2-25.6L73.6,462.7L73.6,462.7z M75.3,462.7l36.5-25l8.2,2.6L100.7,461L75.3,462.7L75.3,462.7z M101.8,460.9l18.9-20.4
		l9.3,3l-7.4,16L101.8,460.9L101.8,460.9z M8.6,479.1V441l33.4,11.6L8.6,479.1L8.6,479.1z M123.5,459.5l7.2-15.7l39.1,12.5l-0.2,0.1
		L123.5,459.5L123.5,459.5z M8.8,479.9l34.1-27.1l29.8,10.3L8.8,479.9L8.8,479.9z M106.8,495.8l16.4-35.5l45.2-3L106.8,495.8
		L106.8,495.8z M104.4,497.3l-17.6-20.1l14.3-15.5l21.2-1.4l-16.7,36.2L104.4,497.3L104.4,497.3L104.4,497.3z M86.3,476.6
		l-11.5-13.1l25.3-1.7L86.3,476.6L86.3,476.6z M47.5,517.8L9.1,480.6l64.1-16.9L47.5,517.8L47.5,517.8L47.5,517.8z M48.5,517.4
		L74,463.9l11.7,13.3L48.5,517.4L48.5,517.4L48.5,517.4z M50.1,516.8l36.2-39.1l17.4,19.8L50.1,516.8L50.1,516.8z M144.9,414.9
		L144.9,414.9L144.9,414.9z"/>
</g>
</svg>
