<?xml version="1.0" encoding="utf-8"?>
<!-- Generator: Adobe Illustrator 25.3.0, SVG Export Plug-In . SVG Version: 6.00 Build 0)  -->
<svg version="1.1" id="Capa_1" xmlns="http://www.w3.org/2000/svg" xmlns:xlink="http://www.w3.org/1999/xlink" x="0px" y="0px"
	 width="241px" height="542px" viewBox="0 0 241 542" style="enable-background:new 0 0 241 542;" xml:space="preserve">
<style type="text/css">
	.st0{fill:url(#SVGID_1_);}
	.st1{fill:#c0af3f;}
</style>
<g>
	
		<linearGradient id="SVGID_1_" gradientUnits="userSpaceOnUse" x1="10.4" y1="273.75" x2="393.3224" y2="273.75" gradientTransform="matrix(1 0 0 -1 0 546.1102)">
		<stop  offset="0" style="stop-color:#19A850"/>
		<stop  offset="0.5" style="stop-color:#0B6FB7"/>
		<stop  offset="0.5895" style="stop-color:#0077B6"/>
		<stop  offset="0.766" style="stop-color:#008DB0"/>
		<stop  offset="1" style="stop-color:#05AA96"/>
	</linearGradient>
	<path class="st0" d="M130.6,510.9l-67.3-42.1l-34.9-50.4l-18-48.6l26.3-36.1c0.2-0.3,0.3-0.7,0.1-1L15,286.2L32.3,248
		c0.1-0.2,0.1-0.3,0.1-0.5L29,218.4l18-37.9c0.1-0.1,0.1-0.2,0.1-0.4l3.4-51.3l35.4-22.6c0.3-0.2,0.5-0.6,0.5-0.9l-2.3-24.9
		l24.5-20.3c0.1,0,0.1-0.1,0.2-0.2l24.3-31.5h29.4c0.2,0,0.4-0.1,0.6-0.2l22.3-15.4l27.4,0.5l16.5,45.5v434l-40.2,39l-0.1,0.1l0,0
		L130.6,510.9z M187.4,530.2c0.1,0.2,0.3,0.3,0.5,0.3c0.1,0,0.2,0.1,0.4,0.1c0.3,0,0.5-0.1,0.7-0.3l38.3-37.2
		c0.2-0.2,0.3-0.4,0.3-0.6c0.1-0.1,0.2-0.2,0.3-0.3c0.1-0.2,0.1-0.5,0.1-0.7c0.1-0.2,0.2-0.4,0.2-0.6v-38.1c0-0.1,0-0.3-0.1-0.4
		c0.1-0.1,0.1-0.3,0.1-0.4c0-0.1,0-0.3-0.1-0.4c0.1-0.1,0.1-0.3,0.1-0.4v-0.3c0-0.2-0.1-0.4-0.1-0.5c0.1-0.2,0.1-0.3,0.1-0.5v-66.7
		c0-0.1,0-0.3-0.1-0.4c0-0.1,0.1-0.2,0.1-0.4v-0.2c0-0.1,0-0.3-0.1-0.4c0.1-0.1,0.1-0.3,0.1-0.4v-55c0-0.2-0.1-0.4-0.2-0.5
		c0.1-0.2,0.2-0.3,0.2-0.5v-0.7c0-0.1,0-0.3-0.1-0.4c0-0.1,0.1-0.2,0.1-0.4v-0.7c0-0.2-0.1-0.4-0.2-0.5c0.1-0.2,0.2-0.4,0.2-0.6
		v-78.7c0-0.2,0-0.3-0.1-0.5c0.1-0.1,0.1-0.3,0.1-0.5v-1.1c0-0.2,0-0.3-0.1-0.4c0.1-0.1,0.1-0.3,0.1-0.4v-48.3c0-0.2,0-0.3-0.1-0.4
		c0.1-0.1,0.1-0.3,0.1-0.4v-1.1c0-0.2,0-0.3-0.1-0.5c0.1-0.1,0.1-0.3,0.1-0.5v-46.2c0-0.2,0-0.3-0.1-0.5c0.1-0.1,0.1-0.3,0.1-0.5
		v-0.9c0-0.1,0-0.3-0.1-0.4c0.1-0.1,0.1-0.3,0.1-0.4v-0.7c0-0.2,0-0.4-0.1-0.5L228,139c0.2-0.2,0.3-0.4,0.3-0.7V60.5
		c0-0.2,0-0.3-0.1-0.5c0.1-0.1,0.1-0.3,0.1-0.5v-0.4c0-0.1,0-0.2-0.1-0.3l-0.3-0.7c-0.1-0.2-0.2-0.3-0.3-0.4c0-0.2,0-0.4,0-0.6
		l-15.1-41.5c-0.1-0.2-0.2-0.4-0.4-0.5c0-0.1-0.1-0.2-0.1-0.3c-0.2-0.3-0.5-0.5-0.9-0.5l-24.7-0.4c-0.2,0-0.4,0.1-0.6,0.2h-0.1
		c-0.2,0-0.4,0.1-0.6,0.2l-20.7,14.3c-0.1,0.1-0.2,0.2-0.3,0.3c-0.1,0-0.3,0.1-0.4,0.2l-0.6,0.4c-0.1,0-0.1,0-0.2,0h-27.8
		c-0.2,0-0.3,0-0.5,0.1c-0.1-0.1-0.3-0.1-0.5-0.1c-0.3,0-0.7,0.1-0.8,0.4L110.1,60c-0.1,0.1-0.1,0.2-0.2,0.4
		c-0.1,0.1-0.2,0.2-0.3,0.3l-0.2,0.2c0,0.1-0.1,0.1-0.1,0.2c-0.1,0-0.2,0.1-0.3,0.2L86.3,80.2c-0.1,0.1-0.2,0.3-0.3,0.4
		c-0.2,0-0.3,0.1-0.4,0.2c-0.2,0.2-0.4,0.5-0.3,0.8l0.1,0.8c0,0.2,0.1,0.4,0.2,0.5l0.1,0.2c-0.1,0.2-0.2,0.4-0.2,0.7l2.1,22.8
		c0,0-0.1,0-0.1,0.1l-0.4,0.3c-0.1,0.1-0.2,0.2-0.3,0.3c-0.1,0-0.3,0.1-0.4,0.1l-34.5,21.7c-0.3,0.2-0.4,0.5-0.5,0.8
		c0,0.2,0,0.3,0.1,0.5c-0.1,0.1-0.1,0.3-0.2,0.5l-3.2,48.8c0,0.1,0,0.3,0.1,0.4c-0.1,0.1-0.1,0.2-0.1,0.4v0.3v0.1
		c-0.1,0.1-0.2,0.2-0.3,0.3l-17.4,36.6c-0.1,0.2-0.1,0.3-0.1,0.5c-0.2,0.2-0.3,0.5-0.2,0.8v0.2c0,0.2,0.1,0.3,0.2,0.5
		c-0.1,0.2-0.1,0.3-0.1,0.5l3.1,27.3c0,0.1,0,0.2,0.1,0.3c-0.1,0.1-0.1,0.2-0.1,0.4c-0.1,0.1-0.2,0.2-0.2,0.3l-14.7,32.6
		c-0.1,0.2-0.1,0.5,0,0.7l-0.2,0.1c-0.2,0.1-0.3,0.2-0.4,0.4l-1.4,3c-0.1,0.3-0.1,0.6,0,0.9c-0.1,0.2-0.1,0.5,0,0.7L38,333.2
		c0,0.1,0,0.1-0.1,0.2s-0.2,0.2-0.3,0.3l-0.5,0.7c-0.1,0.2-0.2,0.3-0.2,0.5c-0.2,0.1-0.3,0.2-0.5,0.3l-24.9,34.2
		c-0.2,0.3-0.2,0.6-0.1,0.9l0.1,0.4c0.1,0.2,0.2,0.4,0.4,0.5c-0.1,0.2,0,0.4,0,0.6l16.4,44.3c0.1,0.2,0.2,0.3,0.3,0.4
		c0,0.2,0,0.4,0,0.5l0.2,0.6c0,0.1,0.1,0.2,0.1,0.2l0.4,0.6c0.1,0.1,0.2,0.3,0.4,0.3c0,0.2,0.1,0.3,0.2,0.5l30.9,44.6
		c0.2,0.3,0.5,0.4,0.8,0.4l0.2,1c0,0.1,0.1,0.2,0.1,0.3l1.1,1.6c0.1,0.1,0.2,0.2,0.3,0.3c0.1,0.2,0.2,0.4,0.4,0.6l0.3,0.2
		c0.1,0.1,0.3,0.1,0.5,0.2c0.1,0.1,0.2,0.3,0.3,0.4l0.2,0.1c0.1,0.1,0.3,0.1,0.5,0.2h0.4c0.1,0.3,0.2,0.5,0.5,0.7l61.5,38.5
		c0.2,0.1,0.3,0.2,0.5,0.2c0.1,0,0.1,0,0.2,0l0.1,0.2c0.1,0.2,0.2,0.3,0.4,0.4l1.2,0.8c0.1,0,0.1,0.1,0.2,0.1c0.1,0,0.2,0.1,0.3,0.1
		c0,0,0,0,0.1,0c0.1,0.1,0.2,0.2,0.4,0.2l53.6,19.3c0.1,0,0.2,0.1,0.3,0.1c0.2,0,0.3,0,0.5-0.1l0.3,0.3c0.1,0.1,0.2,0.2,0.4,0.3
		c0.1,0,0.2,0.1,0.4,0.1C187.3,530.2,187.3,530.2,187.4,530.2z"/>
	<path class="st1" d="M184.9,11.8l-22.5,15.6h-29.9l-24.6,31.9L83,80l2.3,25.4l-35.8,22.8L46.1,180L28,218.2l3.3,29.4l-17.4,38.6
		L35.8,333L9.2,369.6l18.2,49.3l0.1,0.2l35,50.5l67.6,42.3l58.9,21.2l0.4-0.4l0.6,0.7l-0.4-0.9l40.4-39.1l0.2,0.1l-0.2-0.1l0,0V58.6
		l-0.1-0.2l-16.7-46.1L184.9,11.8L184.9,11.8z M195.6,41.9l-9.3-27.1l24.7,0.4L195.6,41.9L195.6,41.9z M194.9,42.1l-30.1-12.8
		L185.5,15L194.9,42.1L194.9,42.1z M226.5,57.4L196,42.6l15.4-26.7L226.5,57.4L226.5,57.4z M174.2,75.8l-10.7-45.5l0.6-0.4L195,43
		L174.2,75.8L174.2,75.8z M173.4,75.3L135,30.4h27.8L173.4,75.3L173.4,75.3z M173,76.1l-62.3-15.6l23.2-30.1h0.1L173,76.1L173,76.1z
		 M195.9,86V43.4l31,15.1l0.3,0.7v0.5L195.9,86L195.9,86z M195.1,86.2l-11.8-5.5l-8.7-4.1l20.5-32.5V86.2L195.1,86.2z M227.1,138.4
		L196,86.8l31.1-26.2V138.4L227.1,138.4z M131.1,89.5L110,61.3l0.2-0.2l62.5,15.7L131.1,89.5L131.1,89.5z M130.1,89.4l-43.3-8.7
		l22.7-18.9L130.1,89.4L130.1,89.4z M129.9,138.2v-0.9l44.3-60.1l8.5,4l12.3,5.7l-26.1,41.9l-38.9,9.7l0.1-0.4L129.9,138.2
		L129.9,138.2z M131.9,90.5l-0.3-0.4l41.5-12.8L130,136l1.4-45.6L131.9,90.5L131.9,90.5z M128.8,137.5L86.1,82.1L86,81.3l44.5,8.9
		l-1.4,46.8L128.8,137.5L128.8,137.5z M127.4,137l-39-30l-2.2-23.4L127.4,137L127.4,137z M169.8,128.7l25.4-40.8l2.6,39.5
		L169.8,128.7L169.8,128.7z M227.1,140.5l-28.5-13L196,88.2l31.1,51.6V140.5L227.1,140.5z M92.9,168.4l-5.5-60.8l0.4-0.3l41.1,31.7
		L92.9,168.4L92.9,168.4z M92.1,168.2L52.4,130l0,0l34.3-21.9L92.1,168.2L92.1,168.2z M195.2,165.6l-25.4-36.2l28-1.3L195.2,165.6
		L195.2,165.6z M195.9,165.9l2.6-37.6l28.5,13v0.9L195.9,165.9L195.9,165.9z M158,166.3l-27.6-27.2l38.6-9.6l25.8,36.8h-36.2l0,0
		L158,166.3L158,166.3z M49.1,179.7l3.2-48.8l39.5,38L49.1,179.7L49.1,179.7z M124.2,167.6l5.5-27.9l0.5,0.4l26.8,26.3L124.2,167.6
		L124.2,167.6z M93.7,168.7l35.3-28.8l-5.5,27.7L93.7,168.7L93.7,168.7z M227.1,189.4l-31-22.7l31-23.5V189.4L227.1,189.4z
		 M186,216.7l-27.5-49.6h36.6L186,216.7L186,216.7z M113.7,221l10.4-52.7l33-1.2L113.7,221L113.7,221z M186.7,217l9.1-49.7l31.3,23
		v1.1L186.7,217L186.7,217z M144.9,220.1l13.1-52.4l27.6,49.8L144.9,220.1L144.9,220.1z M113.8,222l43.3-53.8l-13,51.9L113.8,222
		L113.8,222z M112.9,221.1l-19.8-51.6l30.2-1.1L112.9,221.1L112.9,221.1z M112.3,221.5L49,180.9v-0.1v-0.3v-0.1l43.3-10.9
		L112.3,221.5L112.3,221.5z M111.6,222l-80.3-3.8l17.4-36.6L111.6,222L111.6,222z M227.1,240.6l-40.2-22.8l40.2-25.5V240.6
		L227.1,240.6z M133.7,264.9l11-44.1l40.4-2.6L133.7,264.9L133.7,264.9z M184.6,275.1l1.9-56.7l40.6,23v1.1L184.6,275.1L184.6,275.1
		z M183.9,275.5l-50-9.7l51.9-47.1L183.9,275.5L183.9,275.5z M69.8,247.4l-38.7-28.2V219l80.7,3.8L69.8,247.4L69.8,247.4z
		 M34.3,247.5l-3.1-27.3l37.4,27.3H34.3L34.3,247.5z M143.9,220.9l-11,44l-19.3-42h0.8l-0.2-0.1L143.9,220.9L143.9,220.9z
		 M112.3,223.9l0.6-0.7l19.5,42.3l-61.7-17.7l41.8-24.5L112.3,223.9L112.3,223.9z M227.1,322.2L184.8,276l42.3-32.5V322.2
		L227.1,322.2z M52.5,259l-18.2-10.8l0,0h34.2L52.5,259L52.5,259z M100.2,287.1l-46.9-27.7l16.4-11.1L100.2,287.1L100.2,287.1z
		 M101.7,288l-31-39.4l61.5,17.6L101.7,288L101.7,288z M19.3,281.6L34,248.9l17.9,10.6L19.3,281.6L19.3,281.6z M100.3,288.1
		l-82.9-2.2l1.4-3l33.9-23L100.3,288.1L100.3,288.1z M134.8,321.4l-1.3-54.9l0.3,0.1v-0.1l49.7,9.6L134.8,321.4L134.8,321.4z
		 M134,321.3l-31.8-32.8l30.4-21.8L134,321.3L134,321.3z M186.1,323l-50.7-1.1l48.5-45.2L186.1,323L186.1,323z M227.1,323.9
		l-40.3-0.9l-2.2-46.1l42.4,46.3v0.7H227.1z M39.4,332.9H39l-21.7-46.3l83.2,2.2L39.4,332.9L39.4,332.9z M92.8,334.7l9.1-45.5
		l31.8,32.9L92.8,334.7L92.8,334.7z M92,334.9L40.5,333l60.5-43.6L92,334.9L92,334.9z M188,364.8l-52.5-42.1l50.6,1.1L188,364.8
		L188,364.8z M108.4,376.8l-15.6-41.3l40.9-12.6L108.4,376.8L108.4,376.8z M109,377.3l25.4-54.2l24.8,46.5L109,377.3L109,377.3z
		 M160.1,369.5l-24.5-45.8l51.9,41.7L160.1,369.5L160.1,369.5z M188.8,364.7l-1.9-40.9l40.2,0.9v0.7L188.8,364.7L188.8,364.7z
		 M227.1,381.4l-38-15.9l38-39.1V381.4L227.1,381.4z M107.7,376.8L39,333.7v-0.1l52.8,2v0.2l0.3-0.1L107.7,376.8L107.7,376.8z
		 M43.9,388.6L38.1,335l0.5-0.7l68.8,43.2L43.9,388.6L43.9,388.6z M43.1,388.3l-30.5-17.8l-0.1-0.4l24.9-34.2L43.1,388.3L43.1,388.3
		z M173.6,394.8l-13.1-24.6l27.3-4.1L173.6,394.8L173.6,394.8z M173.6,396.3l15-30.2l38.5,16.1v0.2L173.6,396.3L173.6,396.3z
		 M173.5,396.3l-63.4-18.5l49.5-7.5L173.5,396.3L173.5,396.3z M29.5,415.9l-16.4-44.3l30,17.6L29.5,415.9L29.5,415.9z M92.2,426.7
		l-47.7-37.5l63.4-11L92.2,426.7L92.2,426.7z M159.4,437l-49.9-58.6l63.6,18.5L159.4,437L159.4,437z M158.2,437.2l-65.4-10.1
		l15.7-48.6l50,58.7l-0.5-0.1L158.2,437.2L158.2,437.2z M227.1,449.9l-52.8-53l52.8-13.7V449.9L227.1,449.9z M90.8,426.8L52,421.2
		L44.1,390L90.8,426.8L90.8,426.8L90.8,426.8L90.8,426.8z M51.3,421.1l-20.8-3l-0.4-0.6l-0.2-0.6l13.7-26.8L51.3,421.1L51.3,421.1z
		 M227.1,451.2L160,437.5l13.7-40.1l53.4,53.5V451.2L227.1,451.2z M61.9,463.5L31,418.9l20.4,3L61.9,463.5L61.9,463.5z M64.3,466.8
		l-1.1-1.6L52.3,422l39.4,5.7L64.3,466.8L64.3,466.8z M124.1,448.7L93.9,428l64,9.9L124.1,448.7L124.1,448.7z M65,467.6l-0.3-0.2
		l27.5-39.3l12.4,26.8L65,467.6L65,467.6z M105.3,454.7l-11.7-25.3l20.8,22.4L105.3,454.7L105.3,454.7z M115.2,451.5l-20.3-22
		l28.3,19.4L115.2,451.5L115.2,451.5z M161.3,474.3l-36.5-25.1l34.3-11L161.3,474.3L161.3,474.3z M193,463.8l-32-25.4l66.1,13.5l0,0
		L193,463.8L193,463.8z M162.1,474.5l-2.2-35.9l32.2,25.6L162.1,474.5L162.1,474.5z M160.4,474.6l-25.5-1.7l-19.1-20.8l8.2-2.6
		L160.4,474.6L160.4,474.6z M133.9,472.8l-20.9-1.4l-7.4-16l9.3-3L133.9,472.8L133.9,472.8z M227.1,490.9l-33.4-26.6l33.4-11.6
		V490.9L227.1,490.9z M112.2,471.3l-46.1-3.1l-0.2-0.1l39.1-12.5L112.2,471.3L112.2,471.3z M227,491.8L163,475l29.8-10.3L227,491.8
		L227,491.8z M128.9,507.6l-61.5-38.5l45.2,3L128.9,507.6L128.9,507.6z M131.3,509.1L131.3,509.1l-1.2-0.8l-16.7-36.2l21.2,1.4
		l14.3,15.5L131.3,509.1L131.3,509.1z M149.4,488.5l-13.7-14.8l25.3,1.7L149.4,488.5L149.4,488.5z M188.3,529.6L188.3,529.6
		l-25.8-54l64.1,16.9L188.3,529.6L188.3,529.6z M187.2,529.2L187.2,529.2L149.9,489l11.7-13.3L187.2,529.2L187.2,529.2z
		 M185.7,528.7l-53.6-19.3l17.4-19.8L185.7,528.7L185.7,528.7z"/>
</g>
</svg>
