<?xml version="1.0" encoding="utf-8"?>
<!-- Generator: Adobe Illustrator 25.3.0, SVG Export Plug-In . SVG Version: 6.00 Build 0)  -->
<svg version="1.1" xmlns="http://www.w3.org/2000/svg" xmlns:xlink="http://www.w3.org/1999/xlink" x="0px" y="0px"
	 viewBox="0 0 176.8 220.9" style="enable-background:new 0 0 176.8 220.9;" xml:space="preserve">
<g id="Capa_8">
	<g>
		<g>
			<path d="M48.6,128.7c7.3-5.8,15.2-10.9,23.5-15.2c2.9-1.5,0.3-5.8-2.5-4.3c-8.7,4.5-16.9,9.9-24.5,16c-1.1,0.8-0.9,2.7,0,3.5
				C46.1,129.8,47.6,129.6,48.6,128.7L48.6,128.7z"/>
		</g>
	</g>
	<g>
		<g>
			<path d="M46.1,114.3c2.4,0.1,4.7,0.3,7.1,0.4c2,0.1,4.1,0.2,6,0.8c3.8,1.1,5.2,4.9,8.1,7.2c1.1,0.8,2.5,1,3.5,0
				c0.9-0.9,1.1-2.7,0-3.5c-1.6-1.3-2.8-3-4.1-4.6c-1.6-1.8-3.5-3.1-5.8-3.8c-2.2-0.7-4.5-0.9-6.8-1c-2.7-0.2-5.3-0.3-8-0.5
				c-1.3-0.1-2.5,1.2-2.5,2.5C43.6,113.2,44.7,114.2,46.1,114.3L46.1,114.3z"/>
		</g>
	</g>
	<g>
		<g>
			<path d="M89.7,121.2c6.4-5.2,13.7-9.3,21.4-12.1c1.3-0.5,2.1-1.7,1.7-3.1c-0.3-1.2-1.8-2.2-3.1-1.7c-8.6,3.1-16.5,7.6-23.6,13.4
				c-1,0.9-0.9,2.7,0,3.5C87.2,122.3,88.7,122.1,89.7,121.2L89.7,121.2z"/>
		</g>
	</g>
	<g>
		<g>
			<path d="M84.2,112.1c7.8,1.5,15.4,3.8,22.7,6.8c1.3,0.5,2.7-0.6,3.1-1.7c0.4-1.4-0.5-2.6-1.7-3.1c-7.3-3-15-5.3-22.7-6.8
				c-1.3-0.3-2.7,0.4-3.1,1.7C82.1,110.2,82.9,111.8,84.2,112.1L84.2,112.1z"/>
		</g>
	</g>
	<g>
		<g>
			<path d="M103.9,125.8c0.4,2.1,0.8,4.1,1.2,6.2c0.1,0.6,0.6,1.2,1.1,1.5c0.5,0.3,1.3,0.4,1.9,0.3c0.6-0.2,1.2-0.6,1.5-1.1
				c0.3-0.6,0.4-1.2,0.3-1.9c-0.4-2.1-0.8-4.1-1.2-6.2c-0.1-0.6-0.6-1.2-1.1-1.5c-0.5-0.3-1.3-0.4-1.9-0.3c-0.6,0.2-1.2,0.6-1.5,1.1
				C103.8,124.4,103.7,125.1,103.9,125.8L103.9,125.8z"/>
		</g>
	</g>
	<g>
		<g>
			<path d="M51.5,131.6c-0.2,1.9-0.4,3.7-0.7,5.6c-0.1,0.6,0.3,1.4,0.7,1.8c0.4,0.4,1.1,0.8,1.8,0.7c0.6,0,1.3-0.2,1.8-0.7
				c0.1-0.2,0.3-0.3,0.4-0.5c0.2-0.4,0.3-0.8,0.3-1.3c0.2-1.9,0.4-3.7,0.7-5.6c0.1-0.6-0.3-1.4-0.7-1.8c-0.4-0.4-1.1-0.8-1.8-0.7
				c-0.6,0-1.3,0.2-1.8,0.7c-0.1,0.2-0.3,0.3-0.4,0.5C51.6,130.7,51.5,131.1,51.5,131.6L51.5,131.6z"/>
		</g>
	</g>
	<g>
		<g>
			<path d="M104.3,149c0,1.3,0,2.6,0,3.9c0,0.6,0.3,1.3,0.7,1.8c0.4,0.4,1.1,0.8,1.8,0.7c0.6,0,1.3-0.2,1.8-0.7
				c0.4-0.5,0.7-1.1,0.7-1.8c0-1.3,0-2.6,0-3.9c0-0.6-0.3-1.3-0.7-1.8c-0.4-0.4-1.1-0.8-1.8-0.7c-0.6,0-1.3,0.2-1.8,0.7
				C104.6,147.7,104.3,148.3,104.3,149L104.3,149z"/>
		</g>
	</g>
	<g>
		<g>
			<path d="M56.1,159.5c0.4,1.1,0.8,2.3,1.3,3.4c0.1,0.3,0.2,0.6,0.4,0.9c0.2,0.3,0.4,0.5,0.7,0.6c0.3,0.2,0.6,0.3,0.9,0.3
				c0.3,0.1,0.7,0.1,1,0c0.6-0.2,1.2-0.6,1.5-1.1c0.3-0.6,0.5-1.3,0.3-1.9c-0.4-1.1-0.8-2.3-1.3-3.4c-0.1-0.3-0.2-0.6-0.4-0.9
				c-0.2-0.3-0.4-0.5-0.7-0.6c-0.3-0.2-0.6-0.3-0.9-0.3c-0.3-0.1-0.7-0.1-1,0c-0.6,0.2-1.2,0.6-1.5,1.1
				C56.1,158.1,55.9,158.8,56.1,159.5L56.1,159.5z"/>
		</g>
	</g>
</g>
<g id="Capa_2">
	<g>
		<g>
			<path d="M131.5,185.9c6-0.4,10.6-4.2,14-8.9c3.5-4.8,6.3-10.2,8.7-15.6c2.5-5.5,4.4-11.3,4.9-17.3c0.1-1.4,0.2-2.8,0.1-4.2
				c0-0.6,0-1.3,0-1.8c-0.2-1.1,0-0.3,0-0.2c0.1,0.2-1.4,0.1-1.3,0.4c0.1,0.3,0.6,0.8,0.8,1.1c0.3,0.6,0.6,1.2,0.9,1.8
				c0.6,1.3,1,2.6,1.3,4c1.3,5.6,0.5,11.7-2.3,16.8c-1.4,2.5,1.8,5,3.9,3c1.1-1,2.1-1.9,3.3-2.8c0.7-0.5,1.3-1,2-1.4
				c0.3-0.2,0.6-0.4,1-0.6c0.6-0.3,1.2-0.3,0.1-0.7c-1.3-0.4-0.5-0.2-0.5,0c0,0.3,0.3,0.8,0.4,1.1c0.3,0.7,0.5,1.4,0.8,2.2
				c0.5,1.4,0.9,3,1,4.5c0.2,2.1-0.2,4.6-1.8,6.1c-1.9,1.9-5.1,2.2-7.3,3.6c-1.7,1.1-1.6,4.1,0.6,4.6c4.2,0.9,8.6,0.7,12.7-0.7
				c-1-0.6-2.1-1.2-3.1-1.7c1,2.9-3.2,6-5.3,7.3c-2.9,1.8-6.3,3-9.8,3.3c-8.1,0.7-15.8-2.4-22.5-6.6c-2.7-1.7-5.2,2.6-2.5,4.3
				c6.4,4.1,13.7,7.1,21.4,7.4c6.8,0.3,13.8-1.8,18.9-6.3c3-2.6,6.1-6.6,4.6-10.7c-0.4-1.2-1.7-2.2-3.1-1.7c-3.2,1.1-6.6,1.4-10,0.7
				c0.2,1.5,0.4,3,0.6,4.6c1.6-1,3.5-1.4,5.2-2.2c1.7-0.8,3.1-1.9,4.2-3.4c2.3-3.1,2.5-7.2,1.8-10.8c-0.4-2-1-3.9-1.7-5.7
				c-0.7-1.9-1.6-4.1-4-4.3c-2-0.1-3.9,1.4-5.5,2.5c-1.8,1.3-3.5,2.6-5,4.1c1.3,1,2.6,2,3.9,3c2.9-5.3,4.1-11.4,3.4-17.4
				c-0.4-3.1-1.2-6-2.5-8.8c-1.3-2.7-4.1-6.5-7.5-4.3c-2.7,1.7-2,5.1-2,7.8c-0.1,3.2-0.6,6.2-1.5,9.3c-1.7,6.1-4.6,11.8-7.7,17.3
				c-3,5.2-6.8,12.2-13.5,12.7c-1.3,0.1-2.5,1.1-2.5,2.5C129,184.6,130.1,186,131.5,185.9L131.5,185.9z"/>
		</g>
	</g>
	<g>
		<g>
			<path d="M50.8,199.8c-13.3-2.3-25.1-10.5-32.1-22c-2-3.3-3.6-6.7-4.7-10.4c-0.4-1.2-1.8-2.2-3.1-1.7c-5,1.8-5.6,7.9-6.2,12.4
				c-0.6,5,0.7,10.8,5.5,13.4c0.2-1.5,0.4-3,0.6-4.6c-1.8,0.5-3.5,1.1-5.2,1.8c-1.5,0.6-3.3,1.3-4.5,2.4c-1.3,1.1-1.3,3.5-1.2,5.1
				c0.1,1.7,0.5,3.3,1.1,4.8c2.5,6.1,9,10,15.5,9.2c1.5-0.2,3-1.5,2.4-3.2c-2.5-6.7-11.6,0.9-14.7,3.3c-0.8,0.6-1,2.2-0.4,3
				c4.3,6.3,12.5,7.9,19.7,7.6c7.4-0.3,14.8-2.7,20.9-6.8c3.5-2.3,6.6-5.2,9.2-8.5c0.8-1.1,1-2.5,0-3.5c-0.9-0.9-2.7-1.1-3.5,0
				c-7.7,9.8-21.2,15.9-33.6,13.4c-3.1-0.6-6.4-1.9-8.3-4.6c-0.1,1-0.3,2-0.4,3c1.4-1.1,2.9-2.1,4.4-3c0.8-0.5,1.6-1,2.4-1.3
				c-0.3,0.1,0.3-0.1,0.4-0.1c0.2,0,0.2,0,0.1,0c-0.5-0.1-0.8-0.5-1-1c0.8-1.1,1.6-2.1,2.4-3.2c-3.2,0.4-6.4-0.4-8.7-2.7
				c-2.3-2.2-3.4-5.6-2.9-8.8c-0.4,0.5-0.8,1-1.1,1.5c2.6-1.5,5.3-2.7,8.3-3.5c2-0.6,2.5-3.5,0.6-4.6c-3.1-1.7-3.4-5.5-3-8.6
				c0.2-1.8,0.5-3.6,1-5.4c0.3-0.9,0.7-2.4,1.6-2.7c-1-0.6-2.1-1.2-3.1-1.7c4.2,14.1,14.9,26.1,28.3,32.2c3.8,1.7,7.8,3,11.9,3.7
				c1.3,0.2,2.7-0.4,3.1-1.7C52.9,201.6,52.2,200,50.8,199.8L50.8,199.8z"/>
		</g>
	</g>
</g>
<g id="Capa_3">
	<g>
		<g>
			<path d="M68.5,147.3c-4.2,3.3-10,3.8-15.3,4c-2.8,0.1-3.5,4.2-0.7,4.9c4.6,1.2,9.2-1.3,13.2-3.4c1.8-0.9,3.5-2,5.1-3.4
				c0.4-0.3,0.8-0.7,1.1-1.1c0.3-0.3,0.7-0.6,0.9-1c0.3-0.7-3.3,0.1-2.7-1c0-0.1-0.1,0.6-0.1,0.6c-0.1,0.8-0.1,1.5,0.1,2.3
				c0.4,1.3,1.7,2.1,3.1,1.7c1.2-0.3,2.2-1.8,1.7-3.1c0,0,0,0-0.1,0c-0.1,0-0.1-0.1,0.1-0.3c0-0.4,0.1-0.7,0.1-1.1
				c0-0.6-0.1-1.2-0.4-1.7c-0.7-1.4-2.2-2.4-3.8-2c-1.3,0.3-1.9,1.4-2.8,2.3c-0.7,0.7-1.4,1.3-2.3,1.8c-1.8,1.2-3.8,2.1-5.7,3
				c-1.9,0.9-4.2,2-6.3,1.4c-0.2,1.6-0.4,3.3-0.7,4.9c6.7-0.2,13.4-1.1,18.8-5.4c1.1-0.8,0.9-2.7,0-3.5
				C70.9,146.2,69.5,146.4,68.5,147.3L68.5,147.3z"/>
		</g>
	</g>
	<g>
		<g>
			<path d="M78.1,144c-1.3,2.6-0.1,5.6,2.4,7c2.3,1.3,5.3,1.8,7.9,2.4c2.7,0.6,5.4,1.1,8.2,1.5c1.4,0.2,3,0.7,4.5,0.3
				c2-0.6,2.6-2.8,1.7-4.5c-0.4-0.8-1.3-1.3-2.2-1.2c-3.6,0.1-7.1,0.1-10.4-1.5c-3-1.5-5.4-3.8-7.7-6.2c-2.2-2.4-5.7,1.2-3.5,3.5
				c2.6,2.8,5.6,5.4,9,7.1c4,2,8.2,2.2,12.6,2.1c-0.7-0.4-1.4-0.8-2.2-1.2c0,0.1,0.1,0.1,0.1,0.2c-0.1-0.4-0.2-0.8-0.3-1.3
				c0,0.1,0,0.2,0,0.2c0.1-0.4,0.2-0.8,0.3-1.3c0,0,0.1-0.1,0.1-0.1c0.4-0.2,0.7-0.4,1.1-0.6c-0.4,0.1-1.5-0.2-2-0.3
				c-0.9-0.1-1.8-0.3-2.7-0.5c-1.8-0.3-3.6-0.7-5.4-1.1c-1.8-0.4-3.6-0.8-5.3-1.3c-0.6-0.2-1-0.4-1.5-0.6c-0.1-0.1-0.1-0.1-0.2-0.2
				c0.1,0,0.1,0.1,0.1,0.1c-0.3-0.1,0.1-0.3-0.2,0.1c0.6-1.2,0.3-2.7-0.9-3.4C80.4,142.5,78.7,142.8,78.1,144L78.1,144z"/>
		</g>
	</g>
</g>
<g id="Capa_4">
	<g>
		<g>
			<path d="M114.7,126.1c0.8,8,1.8,16.3-0.4,24.2c-2.1,7.7-7.6,13.4-13.8,18.2c-1.1,0.8-0.9,2.7,0,3.5c1,1,2.5,0.8,3.5,0
				c6.7-5.3,12.5-11.6,14.9-20c2.4-8.4,1.6-17.3,0.7-25.9c-0.1-1.3-1-2.5-2.5-2.5C116,123.6,114.6,124.7,114.7,126.1L114.7,126.1z"
				/>
		</g>
	</g>
	<g>
		<g>
			<path d="M104.5,164.2c0.1,0,0.2,0,0.3,0c-0.2,0-0.4-0.1-0.7-0.1c0.1,0,0.1,0,0.2,0c-0.2-0.1-0.4-0.2-0.6-0.3
				c0.1,0.1,0.2,0.1,0.3,0.2c-0.2-0.1-0.3-0.3-0.5-0.4c0.2,0.1,0.3,0.3,0.5,0.5c-0.1-0.2-0.3-0.3-0.4-0.5c1.5,1.9,2.9,3.9,4.4,5.8
				c0.4,0.5,0.8,1,1.5,1.1c0.6,0.2,1.4,0.1,1.9-0.3c0.5-0.3,1-0.9,1.1-1.5c0.1-0.6,0.1-1.4-0.3-1.9c-1-1.3-2-2.7-3-4
				c-0.5-0.7-1.1-1.4-1.6-2.1c-0.4-0.5-0.7-0.9-1.2-1.2c-0.3-0.2-0.6-0.3-0.9-0.4c-0.3-0.1-0.7-0.1-1-0.1c-0.7,0.1-1.3,0.2-1.8,0.7
				c-0.4,0.4-0.8,1.1-0.7,1.8c0,0.6,0.2,1.3,0.7,1.8C103.2,163.9,103.9,164.3,104.5,164.2L104.5,164.2z"/>
		</g>
	</g>
	<g>
		<g>
			<path d="M108.2,154.1c2.4,2.1,4.7,4.3,7.1,6.4c1,0.9,2.6,1,3.5,0c0.9-1,1-2.6,0-3.5c-2.4-2.1-4.7-4.3-7.1-6.4c-1-0.9-2.6-1-3.5,0
				C107.3,151.6,107.2,153.2,108.2,154.1L108.2,154.1z"/>
		</g>
	</g>
	<g>
		<g>
			<path d="M114.1,144.9c0.9,0.2,1.7,0.5,2.5,0.8c-0.2-0.1-0.4-0.2-0.6-0.3c0.7,0.3,1.3,0.6,2,1c0.5,0.3,1.3,0.4,1.9,0.3
				c0.6-0.2,1.2-0.6,1.5-1.1c0.3-0.6,0.5-1.3,0.3-1.9c-0.2-0.6-0.6-1.1-1.1-1.5c-1.5-1-3.3-1.7-5.1-2.1c-0.7-0.1-1.3-0.1-1.9,0.3
				c-0.5,0.3-1,0.9-1.1,1.5c-0.1,0.6-0.1,1.4,0.3,1.9C112.9,144.3,113.4,144.8,114.1,144.9L114.1,144.9z"/>
		</g>
	</g>
	<g>
		<g>
			<path d="M113.9,137c1.1-0.1,2.1-0.1,3.2,0.1c-0.2,0-0.4-0.1-0.7-0.1c0.4,0,0.7,0.1,1,0.2c0.7,0.1,1.3,0.1,1.9-0.3
				c0.5-0.3,1-0.9,1.1-1.5c0.1-0.6,0.1-1.4-0.3-1.9c-0.3-0.5-0.9-1-1.5-1.1c-1.6-0.3-3.3-0.5-4.9-0.3c-0.3,0-0.7,0.1-1,0.2
				c-0.3,0.1-0.6,0.3-0.8,0.5c-0.4,0.4-0.8,1.1-0.7,1.8c0,0.6,0.2,1.3,0.7,1.8C112.6,136.7,113.2,137,113.9,137L113.9,137z"/>
		</g>
	</g>
</g>
<g id="Capa_5">
	<g>
		<g>
			<path d="M33.1,138.7c-0.3-4.7-0.6-9.5-0.8-14.2c-0.6,0.8-1.2,1.6-1.8,2.4c6.5-2.1,12.3-5.8,17-10.7c-1.4-0.8-2.8-1.6-4.2-2.4
				c-0.7,3.3-1.4,6.9-0.5,10.2c0.9,3.3,3.4,5.7,6.5,6.9c2.8,1.1,6,1.1,8.9,0.8c3.7-0.4,7.4-1.2,10.7-3c6.3-3.4,10.3-10.9,6.9-17.7
				C73,105,66,103.3,60,103.9c-3.9,0.4-7.7,1.6-11.2,3.4c-1.8,0.9-3.6,2-4.8,3.7c-1.3,1.8-1.2,3.9,0.2,5.6c0.9,1,2.6,0.9,3.5,0
				c1-1,0.9-2.5,0-3.5c0.7,0.8,0,0.9,0.6,0.4c0.4-0.4,0.9-0.7,1.4-1c1.2-0.7,2.4-1.3,3.7-1.8c2.2-0.8,4.5-1.5,6.8-1.8
				c3.8-0.4,8.6,0.1,10.8,3.7c2.7,4.3-0.4,9.2-4.3,11.4c-2.4,1.4-5.1,2-7.7,2.4c-2.1,0.3-4.4,0.5-6.5,0.1c-2.1-0.4-4.1-1.4-4.9-3.6
				c-0.9-2.5-0.2-5.4,0.3-7.9c0.5-2.3-2.4-4.3-4.2-2.4c-4.1,4.3-9.1,7.6-14.8,9.4c-1,0.3-1.9,1.3-1.8,2.4c0.3,4.7,0.6,9.5,0.8,14.2
				C28.3,141.9,33.3,141.9,33.1,138.7L33.1,138.7z"/>
		</g>
	</g>
	<g>
		<g>
			<path d="M135.6,123.3c-1.8-0.4-2.1-3-2.5-4.5c-0.7-2.8-1.9-5.2-4.4-6.7c-2.3-1.3-4.9-1.7-7.4-2.2c-3.2-0.6-6.3-1.2-9.5-1.8
				c-1.5-0.3-3.2,0.7-3.2,2.4c0.1,2.3-0.5,4.5-1.9,6.3c-1.4,1.9-3.5,2.9-5.6,3.5c-4.5,1.2-10,1.2-14-1.4c-3.1-2-4.9-6.6-2.5-9.7
				c3-3.8,8.9-3.8,13.2-3.7c4.2,0.1,9.5,0.7,12.1,4.4c0.8,1.1,2.2,1.6,3.4,0.9c1.1-0.6,1.7-2.3,0.9-3.4c-3.5-4.9-9.3-6.5-15-6.8
				c-6.1-0.3-13.6,0-18,4.8c-4.4,4.8-3.3,11.9,1.2,16.2c4.7,4.6,11.9,5,18.1,3.9c3.6-0.6,7.2-2.2,9.6-5.1c2.3-2.8,3.5-6.3,3.4-10
				c-1.1,0.8-2.1,1.6-3.2,2.4c3.1,0.6,6.2,1.1,9.3,1.7c2.2,0.4,5.1,0.6,6.9,2c1.8,1.4,1.7,4.2,2.4,6.2c0.9,2.4,2.6,4.7,5.2,5.2
				C137.4,128.8,138.8,124,135.6,123.3L135.6,123.3z"/>
		</g>
	</g>
	<g>
		<g>
			<path d="M73.5,114.3c0.7-0.4,1.4-0.8,2.1-1.1c0.1,0,0.1-0.1,0.2-0.1c0.2-0.1,0.2-0.1-0.2,0.1c0.2,0,0.4-0.2,0.6-0.2
				c0.4-0.1,0.8-0.2,1.2-0.3c-0.2,0-0.4,0.1-0.7,0.1c0.4-0.1,0.9-0.1,1.3,0c-0.2,0-0.4-0.1-0.7-0.1c0.3,0,0.5,0.1,0.8,0.2
				c0.2,0.1,0.5,0.3-0.1-0.1c0.1,0.1,0.2,0.1,0.3,0.2c0.1,0.1,0.2,0.1,0.3,0.2c0.4,0.2-0.4-0.4-0.1-0.1c0.1,0.1,0.2,0.2,0.2,0.3
				c0.3,0.3-0.4-0.6,0,0c0.7,1.1,2.3,1.6,3.4,0.9c1.1-0.7,1.6-2.2,0.9-3.4c-1.2-2-3.5-3-5.8-3c-2.3,0-4.4,1.1-6.3,2.3
				c-1.1,0.7-1.6,2.3-0.9,3.4C70.8,114.5,72.3,115,73.5,114.3L73.5,114.3z"/>
		</g>
	</g>
	<g>
		<g>
			<path d="M92,111.2c0.2,0.8,0.4,1.5,0.5,2.3c0-0.2-0.1-0.4-0.1-0.7c0.1,0.7,0.1,1.3,0.1,2c0,0.8-0.1,1.5,0.1,2.3
				c0.5,2.4,3.7,3.7,5.6,1.9c1.3-1.3,1.2-3.4,0.8-5c-0.3-1.5-1.1-2.8-2.1-3.9c-0.4-0.5-1.2-0.7-1.8-0.7c-0.6,0-1.3,0.3-1.8,0.7
				c-0.4,0.5-0.8,1.1-0.7,1.8c0,0.7,0.3,1.2,0.7,1.8c0.1,0.1,0.2,0.2,0.3,0.3c-0.1-0.2-0.3-0.3-0.4-0.5c0.3,0.4,0.6,0.9,0.8,1.4
				c-0.1-0.2-0.2-0.4-0.3-0.6c0.2,0.5,0.4,1.1,0.5,1.7c0-0.2-0.1-0.4-0.1-0.7c0.1,0.4,0.1,0.9,0,1.3c0-0.2,0.1-0.4,0.1-0.7
				c0,0.1,0,0.2-0.1,0.4c0.1-0.2,0.2-0.4,0.3-0.6c0,0.1-0.1,0.1-0.1,0.2c0.1-0.2,0.3-0.3,0.4-0.5c0,0-0.1,0.1-0.1,0.1
				c0.2-0.1,0.3-0.3,0.5-0.4c0,0-0.1,0.1-0.1,0.1c0.2-0.1,0.4-0.2,0.6-0.3c0,0-0.1,0-0.1,0c0.2,0,0.4-0.1,0.7-0.1
				c-0.1,0-0.2,0-0.2,0c0.2,0,0.4,0.1,0.7,0.1c-0.1,0-0.2,0-0.2-0.1c0.2,0.1,0.4,0.2,0.6,0.3c-0.1,0-0.1-0.1-0.2-0.1
				c0.2,0.1,0.3,0.3,0.5,0.4c-0.1-0.1-0.1-0.1-0.2-0.2c0.1,0.2,0.3,0.3,0.4,0.5c-0.1-0.1-0.1-0.1-0.1-0.2c0.1,0.2,0.2,0.4,0.3,0.6
				c-0.1-0.2-0.1-0.3-0.1-0.5c0,0.2,0.1,0.4,0.1,0.7c0-0.5,0-0.9,0-1.4c0-0.5,0-1-0.1-1.5c-0.1-1.2-0.3-2.3-0.7-3.5
				c-0.2-0.6-0.6-1.2-1.1-1.5c-0.5-0.3-1.3-0.4-1.9-0.3C92.4,108.5,91.6,109.8,92,111.2L92,111.2z"/>
		</g>
	</g>
	<g>
		<g>
			<path d="M55.5,113.9c-0.7,1.2-1.3,2.4-1.3,3.8c0,0.8,0.2,1.6,0.5,2.3c0.3,0.7,0.9,1.3,1.6,1.7c1.5,1,3.6,0.7,4.8-0.6
				c1-1.1,1.5-2.5,1.6-3.9c0-0.7-0.1-1.3-0.2-2c-0.2-0.6-0.5-1.3-0.9-1.8c-0.4-0.5-0.8-1-1.5-1.1c-0.6-0.1-1.4-0.1-1.9,0.3
				c-0.4,0.3-0.7,0.5-1,0.9c-0.4,0.6-0.7,1-0.9,1.6c-0.3,0.9-0.3,1.8-0.2,2.7c0.1,0.6,0.7,1.2,1.1,1.5c0.5,0.3,1.3,0.4,1.9,0.3
				c0.6-0.2,1.2-0.6,1.5-1.1c0.1-0.2,0.2-0.4,0.3-0.6c0.1-0.4,0.1-0.9,0-1.3c0,0,0,0,0-0.1c0,0.2,0.1,0.4,0.1,0.7c0-0.2,0-0.4,0-0.6
				c0,0.2-0.1,0.4-0.1,0.7c0-0.2,0.1-0.4,0.2-0.7c-0.1,0.2-0.2,0.4-0.3,0.6c0.1-0.2,0.2-0.4,0.3-0.5c-0.1,0.2-0.3,0.3-0.4,0.5
				c0.1-0.2,0.3-0.3,0.4-0.4c-0.2,0.1-0.3,0.3-0.5,0.4c0,0,0,0,0.1,0c-1.1-0.3-2.3-0.6-3.4-0.9c0.2,0.3,0.3,0.5,0.5,0.8
				c-0.1-0.2-0.2-0.4-0.3-0.6c0.1,0.3,0.2,0.6,0.3,1c0-0.2-0.1-0.4-0.1-0.7c0,0.4,0,0.7,0,1.1c0-0.2,0.1-0.4,0.1-0.7
				c0,0.3-0.1,0.7-0.3,1c0.1-0.2,0.2-0.4,0.3-0.6c-0.1,0.2-0.2,0.5-0.4,0.7c0.1-0.2,0.3-0.3,0.4-0.5c-0.1,0.1-0.2,0.3-0.4,0.4
				c0.2-0.1,0.3-0.3,0.5-0.4c-0.1,0.1-0.2,0.1-0.3,0.2c0.2-0.1,0.4-0.2,0.6-0.3c-0.1,0-0.2,0.1-0.3,0.1c0.2,0,0.4-0.1,0.7-0.1
				c-0.1,0-0.2,0-0.3,0c0.2,0,0.4,0.1,0.7,0.1c-0.1,0-0.2,0-0.3-0.1c0.2,0.1,0.4,0.2,0.6,0.3c-0.2-0.1-0.3-0.1-0.4-0.2
				c0.2,0.1,0.3,0.3,0.5,0.4c-0.1-0.1-0.2-0.2-0.4-0.4c0.1,0.2,0.3,0.3,0.4,0.5c-0.1-0.1-0.2-0.3-0.3-0.4c0.1,0.2,0.2,0.4,0.3,0.6
				c-0.1-0.2-0.1-0.3-0.1-0.5c0,0.2,0.1,0.4,0.1,0.7c0-0.2,0-0.4,0-0.7c0,0.2-0.1,0.4-0.1,0.7c0-0.3,0.1-0.7,0.3-1
				c-0.1,0.2-0.2,0.4-0.3,0.6c0.2-0.5,0.5-0.9,0.7-1.3c0.3-0.6,0.4-1.3,0.3-1.9c-0.2-0.6-0.6-1.2-1.1-1.5c-0.6-0.3-1.3-0.5-1.9-0.3
				C56.4,113,55.9,113.4,55.5,113.9L55.5,113.9z"/>
		</g>
	</g>
</g>
<g id="Capa_6">
	<g>
		<g>
			<path d="M40.8,75.9c-0.9-0.6-1.4-1.6-1.8-2.6c-0.6-1.3-1.2-2.6-1.7-3.9c-1-2.7-1.8-5.5-1.9-8.4c-0.1-2.6,0.2-5.1,1.1-7.6
				c1-2.7,2.9-4.7,5-6.7c-1.4-0.4-2.8-0.7-4.2-1.1c2.4,7,6,13.5,10.7,19.2c1,1.2,2.2,2.3,2.8,3.7c0.6,1.3-0.1,2.4-1,3.4
				c-2.3,2.4-5.2,3.8-8.4,4.3c-1.3,0.2-2.1,1.9-1.7,3.1c0.4,1.4,1.7,2,3.1,1.7c7.1-1.2,17.5-8.4,11.6-16.4c-1.2-1.6-2.5-3-3.7-4.6
				c-1.2-1.6-2.3-3.3-3.4-5c-2.1-3.4-3.7-7-5-10.8c-0.6-1.8-2.8-2.5-4.2-1.1c-2.6,2.5-4.8,5.1-6.1,8.5c-1.2,3-1.6,6.4-1.4,9.7
				c0.2,3.5,1.1,6.9,2.4,10.2c1.3,3.1,2.6,6.7,5.6,8.6C41,82,43.5,77.7,40.8,75.9L40.8,75.9z"/>
		</g>
	</g>
	<g>
		<g>
			<path d="M90.4,70.1c5.4-1.5,7.2-7.2,8.7-12c1.9-6.4,3.7-13,3.2-19.8c-1.4,0.6-2.8,1.2-4.3,1.8c5.4,4.3,7.8,10.8,9.5,17.3
				c0.8,3.2,2.1,6.8,1.8,10.1c-0.4,3.5-3.9,4.2-6.8,4.8c-2.7,0.6-8.9,1.5-9.6-2.4c-0.3-1.3-1.9-2.1-3.1-1.7c-1.4,0.4-2,1.7-1.7,3.1
				c0.9,5,6.7,6.8,11.1,6.5c2.4-0.1,4.8-0.6,7.1-1.2c2.2-0.6,4.4-1.6,5.9-3.4c3.1-3.7,2.3-8.6,1.2-12.9c-1-4.1-2-8.2-3.6-12.2
				c-1.8-4.4-4.4-8.6-8.2-11.7c-0.8-0.6-1.7-1-2.7-0.5c-0.9,0.4-1.6,1.3-1.5,2.3c0.4,5.8-1,11.5-2.6,17c-0.9,3.1-1.9,8.9-5.6,9.9
				C85.9,66.1,87.3,70.9,90.4,70.1L90.4,70.1z"/>
		</g>
	</g>
</g>
<g id="Capa_7">
	<g>
		<g>
			<path d="M70.1,1.3c-9,0.4-17.6,3.1-26.1,5.9c-8,2.7-16.2,5.4-23.1,10.3c-3.2,2.3-6,4.9-8.3,7.9c-2.1,2.7-5.5,7.5-2.9,10.8
				c1.3,1.7,3.6,2,5.5,2.4c2.3,0.5,4.6,0.9,6.9,1.2c4.4,0.6,8.8,0.8,13.2,0.9c18.2,0.3,36.4-1.2,54.3-4.2c4.6-0.8,9.1-1.7,13.6-2.7
				c4-0.9,8-1.8,11.7-3.6c6.8-3.3,12.5-11.1,9.3-18.8c-3.4-8.2-12.8-9.6-20.6-10.4c-9.1-0.9-18.3-1.4-27.4-0.8
				c-2.3,0.1-4.6,0.3-6.8,0.6c-1.3,0.2-2.5,1-2.5,2.5c0,1.2,1.1,2.7,2.5,2.5c8.4-1,16.8-1,25.2-0.5c4.2,0.2,8.4,0.6,12.5,1.1
				c3.4,0.4,7,1.2,9.7,3.3c2.2,1.7,3.7,4.3,3.3,7.1c-0.4,3-2.4,5.7-4.7,7.4c-3,2.1-6.5,3.2-10,4c-3.9,1-7.9,1.8-11.8,2.5
				c-16.4,3.1-33,4.8-49.6,5c-8.1,0.1-16.3,0.1-24.2-1.3c-2-0.4-4-0.7-5.9-1.3c0,0-0.5-0.2-0.5-0.2c0.1-0.1-0.7,0.3,0.2,0.2
				c0.5-0.1-0.1,0.4,0.3-0.1c0.4-0.6,0.7-1.5,1.1-2.2c1.6-2.8,3.8-5.3,6.3-7.4c5.6-4.8,12.6-7.6,19.5-9.9c7.6-2.6,15.4-5.4,23.4-6.7
				c2-0.3,3.9-0.5,5.9-0.6C73.3,6.1,73.3,1.1,70.1,1.3L70.1,1.3z"/>
		</g>
	</g>
	<g>
		<g>
			<path d="M28.1,31.9c12.3,1.9,24.7,2.5,37.1,1.8c6.2-0.4,12.4-1.1,18.5-2.1c5.7-0.9,11.6-1.9,17-3.9c2.5-0.9,4.8-2,6.9-3.6
				c2.3-1.7,4.7-4,4.1-7.1c-0.6-2.9-3.3-4.7-5.9-5.6c-2.5-0.9-5.4-1-8-0.9c-6,0.3-11.9,0.8-18,0.8c-6.3,0-12.5,0.3-18.7,1.6
				c-6.7,1.3-13.2,3.4-19.7,5.5c-5.5,1.8-11.6,3.5-14.8,8.7c-1.7,2.8,2.6,5.3,4.3,2.5c2.2-3.6,6.9-4.8,10.7-6
				c5.4-1.8,10.7-3.5,16.2-4.8c5.4-1.3,10.8-2.2,16.3-2.3c5.7-0.2,11.3,0,17-0.4c2.6-0.2,5.2-0.5,7.9-0.6c2.1,0,4.4,0.1,6.3,1.1
				c0.4,0.2,1.5,0.8,1.5,1.4c-0.1,0.6-1.4,1.5-1.9,1.9c-1.8,1.4-3.8,2.3-5.9,3c-4.9,1.7-10.1,2.6-15.2,3.5c-5.5,1-11.1,1.6-16.6,2
				c-12.6,0.9-25.2,0.4-37.7-1.5c-1.3-0.2-2.7,0.3-3.1,1.7C26,30,26.8,31.7,28.1,31.9L28.1,31.9z"/>
		</g>
	</g>
</g>
</svg>
