<?xml version="1.0" encoding="utf-8"?>
<!-- Generator: Adobe Illustrator 17.0.0, SVG Export Plug-In . SVG Version: 6.00 Build 0)  -->
<!DOCTYPE svg PUBLIC "-//W3C//DTD SVG 1.1//EN" "http://www.w3.org/Graphics/SVG/1.1/DTD/svg11.dtd">
<svg version="1.1" xmlns="http://www.w3.org/2000/svg" xmlns:xlink="http://www.w3.org/1999/xlink" x="0px" y="0px" width="1400px"
	 height="1400px" viewBox="0 0 1400 1400" enable-background="new 0 0 1400 1400" xml:space="preserve">
<g id="Layer_1">
	<rect fill-rule="evenodd" clip-rule="evenodd" fill="#FFFFFF" width="1400" height="1400"/>
</g>
<g id="Layer_2">
	<g>
		<g>
			<g>
				<path fill-rule="evenodd" clip-rule="evenodd" fill="#FF665E" d="M1117.7,726l-0.3-0.3l-0.3-0.1c-11.5-4-25.2-0.4-35.6,5
					c-13.6,7.1-25.2,18.9-31.1,33.2c-1.2,2.9-5.3,4.6-8.2,3c-13.4-7.5-28.5-13-44-13.2c-14.1-0.2-27.1,4-38.6,11.9
					c-7.8,5.3-14.1,11.9-17.7,20.7c-2.7,6.7-3.4,13.3-4,20.4c-1.2,15.2-2.7,25.9-16.2,35.2c-13.9,9.6-26.8,9-42.7,7.6
					c-11.3-1-22.9-2-32.3,5.6l-0.1,0l-0.1,0c-14.2,15.4-21.9,36-20.1,57c2.1,25.3,18.1,47.8,45.5,46.8h0.7l0.5-0.2
					c9.2-8.7,20.3-14,32.8-16.1c17.9-3,36.7,1.2,52.8,9.1c6.6,3.3,13,7.2,18.9,11.8l0.2,0.2l0.3,0.1c14.6,5.3,26.7,2.1,37.3-9.1
					c5.1-5.4,13.3,2.3,8.2,7.7c-14.1,14.9-31.4,19-50.6,11.6c-0.7-0.3-0.8-0.4-1.5-0.9c-25.9-20.4-66.8-30.9-92.5-4.2
					c-1,1.1-2,1.6-3.6,1.7c-13.9,1.1-27-2.4-37.9-11.3c-13.8-11.2-21-28.7-22.5-46.1c-1.7-21.2,7.2-52.4,23.9-66.5
					c12.8-10.8,25.5-10,41-8.6c12.6,1.1,24.4,2,35.3-5.7c9.6-6.6,10.5-16.1,11.4-26.8c0.7-8.5,1.5-16.6,4.8-24.7
					c4.4-10.6,12.4-18.5,21.8-24.9c13.5-9.2,28.7-14.1,45.1-13.9c14.9,0.2,29.3,4.4,42.6,11l1.5,0.7l0.8-1.5
					c7.5-13.6,19.4-24.8,33.1-32c11-5.7,24.1-9.2,36.6-7.6l2.2,0.3l-0.3-2.2c-0.7-5.9-2.2-12.1-4.2-17.7c-1.3-3.6-3-7.3-5-10.6
					l-1.5-2.3l-1.5,2.3c-6.9,10.7-17.4,19.6-28.5,25.7c-1.6,0.9-3.3,1.7-5,2.5c-13.2,6.2-28.9,9.4-43.4,6.3c-3-0.7-4.9-3.6-4.3-6.7
					c0.6-3,3.8-5,6.8-4.4c13.6,2.9,28.9-1.1,41-7.6c11.7-6.4,23.8-16.8,28.8-29.6v0l-0.5,0c0.4-1.3,0.7-2.4,1.9-3.1
					c17.6-10.5,32.7-25.2,35.2-46.5c2.5-20.9-7.8-42.6-18.3-60c-8.2-13.6-17.5-26.6-26.8-39.5c-1.2-1.7-2.2-2.9-2.1-5.1
					c1.4-23.5-5.4-47.9-16.6-68.4c-9.6-17.5-25.6-37.3-44.9-44.6c-2.2-0.8-3.7-3-3.6-5.5c1-32.6-33.2-68.1-59-84.3l-1.8-1.2l-0.7,2
					c-11.2,31.1-37,33.8-65.9,36.6c-18.9,1.9-44,5.2-57.4,19.8c-8.5,9.2-10.6,21-9.4,33.1c1.8,18.2,11.5,36.9,29.6,43.3
					c11.6,4.1,24.4,2.5,35.9-1.2c8.1-2.7,17.9-2.6,26.4-2.8c9.3-0.3,19.5-0.8,28.1-4.9c5.6-2.7,10-6.8,13.2-12.1
					c1.6-2.7,5.1-3.5,7.8-1.9c2.7,1.6,3.5,5.1,1.9,7.8c-6.7,11-15.2,17.7-27.9,20.2c-5.7,1.2-11.6,1.4-17.5,1.5
					c-9.6,0.2-19.4,0-28.6,3c-13.9,4.5-29,6.1-43.1,1.2c-22.4-7.9-34.9-30.1-37.1-52.8c-2.2-21.9,4.8-38.5,23.2-50.8l0.9-0.6
					l-0.2-1.1c-1.4-8.8-4.2-17.3-9.4-24.6c-6.6-9.3-16.1-15.2-26.8-18.9c-7-2.4-3.4-13.1,3.6-10.7c13,4.5,24.3,11.7,32.4,23
					c5.3,7.5,8.6,15.9,10.5,24.8l0.4,2l1.9-0.7c12.8-4.9,26.8-6.2,40.4-7.5c26.3-2.6,50.2-5.4,58.1-35l0.1-0.6l-0.2-0.6
					c-13.2-32.4-46.1-48.9-79.2-53.7c-18.8-2.8-39-2-57.3,2.7c-0.6,0.2-1.3,0.2-1.9,0.1c-17.6-1.6-32.1,6.6-41.7,21.2
					c-15,22.6-14.8,53.7-6.8,78.8v0c0,0.9,0.3,1.9,0.2,2.8c-1.5,8-2.4,16.3-2.8,24.5c-0.5,9.5-0.5,19,0,28.5
					c1.1,18.1,4.8,41.7,15.6,56.7l0.1,0.1l0.1,0.1c21.9,22.7,43.6,43.7,72.7,56.9c0.1,0.1,0.3,0.2,0.4,0.2
					c33.7,19.1,60,23.2,97.9,15.1c1.5-0.3,3.1,0,4.4,0.9l0,0c13.7,9,26.4,11.4,42.3,7.1l0.5-0.1l0.3-0.4
					c7.1-7.7,11.5-16.7,12.2-27.3c1-14.2-4.7-28.6-11-41.1c-3.3-6.6,6.8-11.7,10.1-5c7,14,12.9,30,12.1,45.9
					c-0.6,11.5-4.6,21.7-11.7,30.8l-1,1.3l1.2,1.1c11.8,10.7,19.6,25.2,23.5,40.6l1.1,4.5l2.1-4.1c7.1-13.6,16.8-21.9,31-28
					c6.8-2.9,11.1,7.5,4.3,10.4c-6.7,2.8-12.6,6.6-17.6,11.9c-5.1,5.5-8.8,12.1-11.6,19c-3.4,8.4-6.1,17.4-8.4,26.2l-0.5,0.1v0.1
					c-1,10.1-4.5,19.7-9.3,28.8c-9,16.8-41.8,23.9-59.3,23.9h-0.1h0c-40.8,3-84.2,30.6-95.2,71v0c-5,17.8-14.9,34.2-26.6,48.2
					c-4.8,5.7-13.3-1.6-8.5-7.2c10.9-13.1,20.8-28.6,24.8-45.4c2.8-12,2.5-24.3-2.5-35.7c-7.4-16.9-23.9-28.8-42-31.7
					c-16-2.5-32.2,2.6-40.5,17.1l-0.1,0.1l0,0.1c-16.4,40.7-27.8,97.6-6.4,138.3c1,2,0.8,4.4-0.6,6.1
					c-13.8,17.7-19.4,42.2-17.8,64.3c1,13.6,4,27.3,11.1,39.1c4.6,7.6,9.9,12.8,16.6,18.5c0.6,0.5,1,1.1,1.2,1.8
					c0.6,2.3-1.3,4.5-3.1,5.6c-14.7,9.2-22.7,24.3-22.4,41.6c0.3,14.3,6.8,30,18.3,38.8l0.1,0.1l0.1,0.1
					c17.7,9.1,39.5,10.4,58.9,6.5c18.1-3.6,37.9-12.7,48.8-28.2l3.8-5.4l4.8,4.6c9.8,9.5,21.9,15.7,35.3,18.1
					c12.7,2.2,27.8,1,39.4-4.9c2.8-1.4,6.2-0.3,7.6,2.5c1.4,2.8,0.3,6.2-2.5,7.6c-13.6,6.9-31.4,8.5-46.4,5.9
					c-13-2.3-25-7.7-35.3-15.9l-1.3-1l-1.1,1.2c-13,14.1-32.3,22.9-50.8,26.6c-20.2,4-42.6,2.9-61.6-5.4l-1.3-0.5l-0.8,1.1
					c-18.3,24.1-13.2,57.5,8,78c2.1,2.1,4.5,3.8,7,5.6c2,1.4,4.2,3,5.9,4.8c12.5,12.7,33,23,51,17.7c10.6-3.1,17.7-11,22-21l0.2-0.5
					l-0.1-0.5c-2.2-11.9-9.9-20.8-20.3-26.5c-6.9-3.7-17.8-7.4-25.8-6.3c-3.6,0.6-6.5-1.4-6.8-5.1c0-0.8,0-1.6,0.3-2.4
					c0.7-2.1,2.3-3.3,4.4-3.6c5.6-0.9,12.1,0,17.6,1.4c5.4,1.4,10.9,3.4,15.8,6.1c11.9,6.5,21,16.4,24.8,29.6l0.5,1.5l1.6-0.3
					c20.9-4,36.6-14.2,41.9-35.9c0.7-3.4,4.5-5.4,7.7-4c10.7,4.5,22.5,6.1,34,4.6c14.3-1.8,27.8-8,38.8-17.4
					c19.6-16.8,29-42.1,22.2-67.4c-0.8-2.9,1-6.1,4-6.9c24.2-6.6,39.6-24,42.3-49c0.3-2.6,2.2-4.6,4.8-5c16.4-2.6,29.5-15.4,37-29.7
					c6.2-11.9,9.6-26.7,6.5-40l-0.4-1.9l-1.8,0.6c-12.2,4.1-26,4.9-38.6,2.7c-13-2.3-25-7.7-35.3-15.9l-1.3-1l-1.1,1.2
					c-12.9,14.1-32.2,22.8-50.8,26.5c-22,4.4-46.8,2.6-66.8-7.9c-2.8-1.5-3.8-4.9-2.4-7.6c1.4-2.8,4.9-3.8,7.6-2.4
					c17.8,9.4,39.9,10.7,59.4,6.8c18-3.6,38.1-12.5,48.8-28.2c1.9-2.8,6.1-3.1,8.5-0.8c9.8,9.6,21.9,15.7,35.3,18.1
					c16.9,2.9,33.6,0.3,47.5-10c21-15.5,29.5-43.5,29.3-68.7C1150.8,776.4,1139.1,746.9,1117.7,726z M932.1,384.2
					c-7.9,7.6-18.9,12.8-29.3,15.7c-10.2,2.9-21.9,4.3-32.4,2.6c-3.3-0.6-5.1-3.2-4.6-6.4c0.2-1.1,0.6-2.1,1.3-2.9
					c1.3-1.6,3.1-2.1,5.1-1.8c8.8,1.4,18.8,0.2,27.3-2.2c8.7-2.4,18.2-6.8,24.8-13.1C929.6,371,937.4,379.1,932.1,384.2z
					 M852.1,1001.3c-7.9,7.6-18.9,12.8-29.3,15.7c-10.2,2.9-21.9,4.3-32.4,2.6c-3.3-0.6-5.1-3.2-4.6-6.4c0.2-1,0.6-2.1,1.3-2.9
					c1.3-1.6,3.1-2.1,5.1-1.8c8.8,1.5,18.8,0.2,27.3-2.2c8.7-2.4,18.2-6.8,24.8-13.1c2.2-2.1,5.8-2.1,8,0.2
					C854.4,995.6,854.3,999.2,852.1,1001.3z M1104.5,817.3c-16.1,13.3-42.5,14.9-60.5,4.9l-1-0.6l-0.9,0.7
					c-14.5,11.3-39.3,17.5-57.4,14.6c-3.3-0.6-5.1-3.2-4.6-6.4c0.2-1.1,0.6-2.1,1.3-2.9c1.3-1.6,3.1-2.1,5.1-1.8
					c8.6,1.4,18.7,0.1,27.1-2.1c8.7-2.4,18.7-6.7,25.1-13.2c1.6-1.7,5.3-1.9,7.2-0.5c14,10.5,38,9.8,51.5-1.4
					C1103,803.9,1110.3,812.6,1104.5,817.3z"/>
				<path fill-rule="evenodd" clip-rule="evenodd" fill="#FF665E" d="M768.3,683.7l1.1,2.3l1.7-1.8c11.2-11.4,27.1-15.3,42.6-13.4
					l2.8,0.3l-0.9-2.7c-12.7-36.1,7.2-86.2,49.5-88c3.1-0.1,5.7,2.3,5.8,5.4c0.1,3.1-2.3,5.7-5.4,5.9c-27.2,1.2-41.7,26.9-42.2,51.9
					c-0.2,10.8,2.1,21.9,7.6,31.4l0.3,0.5l0.5,0.2c15.3,6.5,28.1,18.4,34.9,33.7c1.5,3.4,2.7,6.9,3.5,10.5l0.9,3.7l2.2-3.1
					c13.8-19.1,34.2-33.3,56.2-41.4l4-1.5l-3.9-1.7c-9-4.1-16.9-9.8-23.7-16.9c-5.1-5.4,3.1-13.2,8.2-7.7
					c16.7,17.7,40.3,23.2,63.9,19.6c9.8-1.5,31.4-7.7,36.3-17c16.2-30.4,12.7-75.2-15.2-97.8l-0.7-0.5l-0.8,0.2
					c-17.4,4.3-32.4,1.9-47.6-7.5l-0.6-0.3l-0.7,0.1c-39.4,7.8-67.7,2.9-102.6-16.9l-0.1,0l-0.1,0c-9.7-4.4-18.8-9.7-27.5-15.8
					l-0.8-0.6l-0.9,0.5c-16,8-31.6,25.5-32.8,44c-0.3,4.2,0.2,8.3,1.4,12.3c2.2,7.1-8.6,10.4-10.8,3.3c-1.9-6-2.4-12.2-1.7-18.5
					c1.3-11.3,6.6-21.9,13.6-30.8c5.3-6.6,11.9-12.5,19.1-17l2.1-1.3l-1.9-1.6c-10.9-9-21-18.8-30.9-28.9l-1.3-1.3l-1.3,1.3
					c-28.2,29.7-32,77.5-28.1,116.3c1.6,16.4,4.8,32.9,9.1,48.8C757.1,656.2,762,670.4,768.3,683.7z"/>
			</g>
			<g>
				<path fill-rule="evenodd" clip-rule="evenodd" fill="#FFE44A" d="M751.2,877.8c2.8-12.3,7.9-24.1,15.5-33.8
					c1.4-1.7,1.6-4.1,0.6-6.1c-21.5-40.7-10-97.6,6.4-138.3l0-0.1l0.1-0.1c8.4-14.6,24.6-19.7,40.5-17.1c18,2.8,34.6,14.8,42,31.7
					c5,11.4,5.3,23.7,2.5,35.7c-4,16.8-13.9,32.3-24.8,45.4c-4.8,5.7,3.8,12.9,8.5,7.2c11.7-14,21.6-30.3,26.6-48.2v0
					c11-40.4,54.4-68,95.2-71h0h0.1c17.5,0,50.4-7,59.3-23.9c4.8-9,8.3-18.7,9.3-28.8v-0.1l0.5-0.1c2.3-8.7,5-17.8,8.4-26.2
					c1.1-2.7,2.4-5.3,3.7-7.8l86.6,33.6c-5.4,15.8-18.2,27.4-32.8,36.1c-1.2,0.7-1.5,1.8-1.9,3.1l0.5,0v0
					c-5,12.8-17.1,23.2-28.8,29.6c-12,6.5-27.3,10.5-41,7.6c-3-0.6-6.2,1.3-6.8,4.4c-0.6,3,1.3,6,4.3,6.7
					c14.5,3.1,30.2-0.1,43.4-6.3c1.7-0.8,3.3-1.6,5-2.5c11.1-6.1,21.7-14.9,28.5-25.7l1.5-2.3l1.5,2.3c2.1,3.3,3.7,6.9,5,10.6
					c2.1,5.7,3.5,11.8,4.2,17.7l0.3,2.2l-2.2-0.3c-12.4-1.7-25.6,1.8-36.6,7.6c-13.7,7.1-25.7,18.4-33.1,32l-0.8,1.5l-1.5-0.7
					c-13.3-6.5-27.7-10.8-42.6-11c-16.4-0.2-31.5,4.7-45.1,13.9c-9.4,6.4-17.3,14.3-21.8,24.9c-3.4,8-4.1,16.1-4.8,24.7
					c-0.9,10.7-1.8,20.2-11.4,26.8c-11,7.6-22.8,6.8-35.3,5.7c-15.5-1.4-28.2-2.2-41,8.6c-15.3,12.9-24.1,40.3-24.1,61.2
					L751.2,877.8z M1035,592l-1.4,2.7l-0.9-3.6L1035,592z M898.2,539c-15.3-2.4-30.2-8.2-46.9-17.7c-0.1-0.1-0.3-0.2-0.4-0.2
					c-1.6-0.7-3.2-1.5-4.7-2.2L898.2,539z M1011.8,971.9c4.1-2.4,8-5.6,11.7-9.4c5.1-5.4-3.1-13.1-8.2-7.7s-10.5,8.9-16.3,10.5
					l-77.7-40l-31.5,18.5l-63.3-30.1c-0.1-0.4-0.1-0.8-0.1-1.2c-1.7-21,5.9-41.7,20.1-57.1l0.1-0.1l0.1-0.1c9.4-7.6,21-6.6,32.3-5.6
					c15.9,1.4,28.8,2,42.7-7.6c13.5-9.4,15-20.1,16.2-35.2c0.6-7.1,1.2-13.8,4-20.4c3.6-8.8,10-15.4,17.7-20.7
					c11.6-7.9,24.6-12.1,38.6-11.9c15.5,0.2,30.6,5.7,44,13.2c2.9,1.6,6.9-0.1,8.2-3c5.9-14.2,17.5-26.1,31.1-33.2
					c10.4-5.4,24.1-9.1,35.6-5l0.3,0.1l0.3,0.3c21.4,21,33.1,50.4,33.4,80.2c0.2,25.2-8.3,53.1-29.3,68.7
					c-13.9,10.3-30.6,12.9-47.5,10c-13.4-2.3-25.5-8.5-35.3-18.1c-2.4-2.3-6.6-2-8.5,0.8c-10.7,15.6-30.8,24.6-48.8,28.2
					c-19.5,3.9-41.6,2.6-59.4-6.8c-2.7-1.4-6.2-0.3-7.6,2.4c-1.4,2.7-0.3,6.1,2.4,7.6c20.1,10.5,44.8,12.3,66.8,7.9
					c18.6-3.7,37.9-12.4,50.8-26.5l1.1-1.2l1.3,1c10.3,8.2,22.3,13.6,35.3,15.9c12.6,2.2,26.4,1.4,38.6-2.7l1.8-0.6l0.4,1.9
					c3.1,13.3-0.2,28.1-6.5,40c-7.5,14.2-20.5,27.1-37,29.7c-2.5,0.4-4.5,2.4-4.8,5c-1,9.8-4,18.4-8.7,25.6L1011.8,971.9z
					 M1104.5,817.3c5.7-4.7-1.5-13.4-7.2-8.7c-13.4,11.1-37.5,11.8-51.5,1.4c-1.9-1.4-5.6-1.2-7.2,0.5c-6.4,6.5-16.4,10.8-25.1,13.2
					c-8.4,2.2-18.4,3.5-27.1,2.1c-2-0.3-3.8,0.2-5.1,1.8c-0.7,0.8-1.1,1.9-1.3,2.9c-0.5,3.2,1.3,5.8,4.6,6.4
					c18.1,3,42.9-3.3,57.4-14.6l0.9-0.7l1,0.6C1062.1,832.2,1088.5,830.6,1104.5,817.3L1104.5,817.3z"/>
				<path fill-rule="evenodd" clip-rule="evenodd" fill="#FFE44A" d="M768.3,683.7c-6.3-13.3-11.2-27.5-15-41.7
					c-4.3-16-7.5-32.4-9.1-48.8c-3.4-34.7-0.8-76.5,19.9-106.2l36,14c1.9,1.6,3.7,3.2,5.7,4.8l1.9,1.6l-2.1,1.3
					c-7.2,4.5-13.8,10.4-19.1,17c-7.1,8.8-12.3,19.5-13.6,30.8c-0.7,6.3-0.2,12.5,1.7,18.5c2.2,7.1,13,3.7,10.8-3.3
					c-1.3-4-1.7-8.2-1.4-12.3c1.2-18.4,16.9-36,32.8-44l0.9-0.5l0.8,0.6c8.7,6.1,17.8,11.4,27.5,15.8l0.1,0l0.1,0
					c28.9,16.4,53.2,22.6,83.1,19.8l90.3,35c7.6,22,5.4,48-5.2,67.9c-4.9,9.2-26.5,15.4-36.3,17c-23.6,3.6-47.2-1.9-63.9-19.6
					c-5.1-5.4-13.3,2.3-8.2,7.7c6.7,7.1,14.7,12.8,23.7,16.9l3.9,1.7l-4,1.5c-22,8.1-42.4,22.3-56.2,41.4l-2.2,3.1l-0.9-3.7
					c-0.8-3.6-2-7.1-3.5-10.5c-6.8-15.3-19.5-27.2-34.9-33.7l-0.5-0.2l-0.3-0.5c-5.5-9.4-7.8-20.5-7.6-31.4
					c0.5-24.9,15-50.6,42.2-51.9c3.1-0.1,5.5-2.8,5.4-5.9c-0.1-3.1-2.8-5.5-5.8-5.4c-42.3,1.9-62.2,51.9-49.5,88l0.9,2.7l-2.8-0.3
					c-15.5-1.9-31.4,2-42.6,13.4l-1.7,1.8L768.3,683.7z"/>
			</g>
			<g>
				<path fill-rule="evenodd" clip-rule="evenodd" fill="#33CC66" d="M1029,647.3c2-5.5,4-11.2,4-16.9v-0.1l0.5-0.1
					c2.3-8.7,5-17.8,8.4-26.2c2.8-6.9,6.4-13.5,11.6-19c4.9-5.3,10.9-9.1,17.6-11.9c6.8-2.9,2.5-13.3-4.3-10.4
					c-14.2,6.1-23.9,14.3-31,28l-2.1,4.1l-1.1-4.5c-3.9-15.4-11.7-29.9-23.5-40.6l-1.2-1.1l1-1.3c7.1-9.1,11.1-19.3,11.7-30.8
					c0.8-15.9-5.1-31.9-12.1-45.9c-3.3-6.6-13.4-1.6-10.1,5c6.2,12.5,12,26.9,11,41.1c-0.8,10.6-5.1,19.6-12.2,27.3l-0.3,0.4
					l-0.5,0.1c-15.9,4.2-28.6,1.9-42.3-7.1l0,0c-1.3-0.9-2.9-1.2-4.4-0.9c-37.9,8.1-64.3,4-97.9-15.1c-0.1-0.1-0.3-0.2-0.4-0.2
					c-29.1-13.3-50.8-34.3-72.7-56.9l-0.1-0.1l-0.1-0.1c-10.8-15-14.5-38.6-15.6-56.7c-0.6-9.5-0.6-19,0-28.5
					c0.5-8.2,1.4-16.4,2.8-24.5c0.2-0.9-0.2-1.9-0.2-2.8v0c-8-25.1-8.2-56.2,6.8-78.8c9.6-14.5,24.1-22.8,41.7-21.2
					c0.6,0,1.3,0,1.9-0.1c18.4-4.7,38.6-5.4,57.3-2.7c33.1,4.9,65.9,21.3,79.2,53.7l0.2,0.6l-0.1,0.6c-7.9,29.6-31.8,32.4-58.1,35
					c-13.6,1.3-27.6,2.7-40.4,7.5l-1.9,0.7l-0.4-2c-1.9-8.9-5.2-17.4-10.5-24.8c-8-11.3-19.4-18.5-32.4-23c-7-2.4-10.7,8.3-3.6,10.7
					c10.7,3.7,20.2,9.5,26.8,18.9c5.2,7.3,8,15.8,9.4,24.6l0.2,1.1l-0.9,0.6c-18.4,12.3-25.4,28.9-23.2,50.8
					c2.2,22.7,14.7,44.9,37.1,52.8c14,5,29.2,3.4,43.1-1.2c9.2-3,19-2.8,28.6-3c5.8-0.1,11.7-0.3,17.5-1.5
					c12.7-2.5,21.2-9.2,27.9-20.2c1.6-2.7,0.8-6.1-1.9-7.8c-2.7-1.6-6.1-0.8-7.8,1.9c-3.2,5.3-7.6,9.3-13.2,12.1
					c-8.5,4.1-18.7,4.7-28.1,4.9c-8.5,0.2-18.3,0.1-26.4,2.8c-11.5,3.7-24.3,5.4-35.9,1.2c-18.1-6.4-27.8-25.1-29.6-43.3
					c-1.2-12.1,0.9-23.9,9.4-33.1c13.4-14.5,38.6-17.9,57.4-19.8c28.9-2.8,54.7-5.5,65.9-36.6l0.7-2l1.8,1.2
					c25.8,16.2,60.1,51.7,59,84.3c-0.1,2.4,1.4,4.6,3.6,5.5c19.2,7.2,35.2,27.1,44.9,44.6c11.2,20.5,18.1,44.9,16.6,68.4
					c-0.1,2.2,0.9,3.4,2.1,5.1c9.2,12.9,18.6,25.9,26.8,39.5c10.5,17.4,20.8,39.1,18.3,60c-2.6,21.3-17.6,35.9-35.2,46.5
					c-1.2,0.7-1.5,1.8-1.9,3.1l0.5,0v0c-3,3.6-4,7-6.2,10.1L1029,647.3z M1101.5,684.4c0.3-0.5,0.7-1,1-1.6l1.5-2.3l1.5,2.3
					c1,1.6,1.9,3.3,2.8,5L1101.5,684.4z M932.1,384.2c5.3-5.1-2.5-13.3-7.8-8.1c-6.6,6.3-16.1,10.6-24.8,13.1
					c-8.5,2.4-18.5,3.6-27.3,2.2c-2-0.3-3.8,0.2-5.1,1.8c-0.7,0.8-1.1,1.9-1.3,2.9c-0.5,3.2,1.3,5.8,4.6,6.4
					c10.5,1.7,22.3,0.3,32.4-2.6C913.2,397,924.2,391.8,932.1,384.2L932.1,384.2z"/>
				<path fill-rule="evenodd" clip-rule="evenodd" fill="#33CC66" d="M744.5,542c3.2-24.3,11.3-47.7,27.8-65.1l1.3-1.3l1.3,1.3
					c9.9,10.1,20,19.9,30.9,28.9l1.9,1.6l-2.1,1.3c-7.2,4.5-13.8,10.4-19.1,17c-6.9,8.6-12,18.9-13.5,29.9L744.5,542z M783.7,560.6
					c0-0.5,0-0.9,0.1-1.4c1.2-18.4,16.9-36,32.8-44l0.9-0.5l0.8,0.6c8.7,6.1,17.8,11.4,27.5,15.8l0.1,0l0.1,0
					c34.9,19.8,63.2,24.7,102.6,16.9l0.7-0.1l0.6,0.3c15.3,9.4,30.2,11.8,47.6,7.5l0.8-0.2l0.7,0.5c24.5,19.8,30.2,56.7,20.3,85.9
					l-72.1-37.2l-31.5,18.5L853.8,594c3.6-1.3,7.5-2.1,11.7-2.2c3.1-0.1,5.5-2.8,5.4-5.9c-0.1-3.1-2.8-5.5-5.8-5.4
					c-9.2,0.4-17.3,3.1-24.2,7.3L783.7,560.6z"/>
			</g>
		</g>
		<path fill-rule="evenodd" clip-rule="evenodd" fill="#70A5DB" d="M657.2,684.2c-11.2-11.4-27.1-15.3-42.6-13.4l-2.8,0.3l0.9-2.7
			c12.7-36.1-7.1-86.2-49.5-88c-3.1-0.1-5.7,2.3-5.9,5.4c-0.1,3.1,2.3,5.7,5.4,5.9c8.5,0.4,16.3,3.2,22.9,8.4
			c12.9,10.2,19,27.4,19.3,43.4c0.2,10.8-2.1,21.9-7.6,31.4l-0.3,0.5l-0.5,0.2c-15.3,6.5-28.1,18.4-34.8,33.7
			c-1.5,3.4-2.7,6.9-3.5,10.5l-0.9,3.7l-2.2-3.1c-13.8-19.1-34.2-33.3-56.2-41.4l-4-1.5l3.9-1.7c9-4.1,16.9-9.8,23.7-16.9
			c5.1-5.4-3.1-13.2-8.2-7.7c-16.7,17.7-40.3,23.2-63.9,19.6c-9.8-1.5-31.4-7.7-36.3-17c-16.2-30.4-12.7-75.2,15.2-97.8l0.7-0.5
			l0.8,0.2c17.4,4.3,32.3,1.9,47.6-7.5l0.6-0.3l0.7,0.1c39.4,7.8,67.8,2.9,102.6-16.9l0.1,0l0.1,0c9.6-4.4,18.8-9.7,27.4-15.8
			l0.9-0.6l0.9,0.5c7.6,3.8,14.6,9.4,20.1,15.9c9.5,11,15.9,25.9,11.3,40.4c-2.2,7.1,8.5,10.4,10.8,3.3c1.9-6,2.4-12.2,1.7-18.5
			c-2.3-19.5-16.4-37.6-32.8-47.8l-2.1-1.3l1.9-1.6c10.9-9,21-18.8,30.9-28.9l1.3-1.3l1.3,1.3c28.3,29.7,32,77.5,28.1,116.3
			c-1.6,16.4-4.8,32.9-9.1,48.8c-3.8,14.2-8.8,28.4-15,41.7l-1,2.3L657.2,684.2z M546,1026.8l-4.8,4.6c-9.8,9.5-21.8,15.7-35.3,18.1
			c-12.7,2.2-27.8,1-39.4-4.9c-2.8-1.4-6.2-0.3-7.6,2.5c-1.4,2.8-0.3,6.2,2.5,7.6c13.7,6.9,31.4,8.5,46.4,5.9
			c13-2.3,25-7.7,35.3-15.9l1.3-1l1.1,1.2c13,14.1,32.3,22.9,50.8,26.6c20.2,4,42.6,2.9,61.6-5.4l1.3-0.5l0.8,1.1
			c18.3,24.1,13.2,57.5-8,78c-2.1,2.1-4.5,3.8-7,5.6c-2,1.4-4.2,3-5.9,4.8c-1.3,1.3-2.6,2.5-3.9,3.7c-21.9,19-55.5,24.3-69-7
			l-0.2-0.5l0.1-0.5c2.2-11.9,9.9-20.8,20.3-26.5c6.9-3.7,17.8-7.4,25.8-6.3c2.4,0.4,4.7-0.3,6-2.6c2-3.5,0.3-7.8-3.9-8.5
			c-5.6-0.9-12.1,0-17.6,1.4c-5.4,1.4-10.9,3.4-15.8,6.1c-11.9,6.5-21,16.4-24.8,29.6l-0.5,1.5l-1.6-0.3
			c-20.9-4-36.6-14.2-41.9-35.9c-0.7-3.4-4.5-5.4-7.7-4c-10.7,4.5-22.5,6.1-34,4.6c-14.3-1.8-27.8-8-38.8-17.4
			c-19.6-16.8-29-42.1-22.2-67.4c0.8-2.9-1-6.1-4-6.9c-24.3-6.6-39.6-24-42.3-49c-0.2-2.6-2.2-4.6-4.7-5c-1.9-0.3-3.8-0.7-5.7-1.3
			c-13.8-4.3-24.7-15.8-31.3-28.3c-6.2-11.9-9.6-26.7-6.5-40l0.4-1.9l1.9,0.6c12.2,4.1,26,4.9,38.6,2.7c13-2.3,25-7.7,35.3-15.9
			l1.3-1l1.1,1.2c12.9,14.1,32.2,22.8,50.8,26.5c22,4.4,46.8,2.6,66.8-7.9c2.7-1.5,3.8-4.9,2.4-7.6c-1.4-2.8-4.8-3.8-7.6-2.4
			c-17.8,9.4-39.9,10.7-59.4,6.8c-18-3.6-38.1-12.5-48.8-28.2c-1.9-2.8-6.1-3.1-8.5-0.8c-9.8,9.6-21.9,15.7-35.3,18.1
			c-16.9,2.9-33.5,0.3-47.5-10c-21-15.5-29.5-43.5-29.3-68.7c0.2-29.8,11.9-59.3,33.3-80.2l0.3-0.3l0.3-0.1c11.5-4,25.2-0.4,35.6,5
			c13.6,7.1,25.2,18.9,31.1,33.2c1.2,2.9,5.3,4.6,8.1,3c13.4-7.5,28.5-13,44-13.2c14.1-0.2,27.1,4,38.6,11.9
			c7.8,5.3,14.1,11.9,17.7,20.7c2.7,6.7,3.4,13.3,4,20.4c1.2,15.2,2.7,25.9,16.2,35.2c13.9,9.6,26.8,9,42.7,7.6
			c11.3-1,22.9-2,32.3,5.6l0.1,0.1l0.1,0.1c14.2,15.4,21.9,35.9,20.2,56.8c-2.1,25.3-18.1,47.8-45.5,46.8h-0.7l-0.5-0.2
			c-9.2-8.7-20.3-14.1-32.8-16.3c-17.9-3-36.6,1.3-52.8,9.2c-6.7,3.3-13,7.2-18.9,11.8l-0.2,0.2l-0.2,0.1
			c-14.6,5.3-26.7,2.1-37.4-9.1c-5.1-5.4-13.3,2.3-8.2,7.7c14.1,14.9,31.4,19,50.6,11.6c0.8-0.3,0.9-0.4,1.5-0.9
			c25.9-20.4,66.9-30.9,92.5-4.2c1,1.1,2.1,1.6,3.6,1.7c13.9,1.1,27.1-2.4,37.9-11.3c13.8-11.2,21.1-28.7,22.5-46.1
			c1.7-21.2-7.2-52.4-23.9-66.5c-12.8-10.8-25.5-10-41-8.6c-12.6,1.1-24.3,2-35.3-5.7c-9.6-6.6-10.5-16.1-11.4-26.8
			c-0.7-8.5-1.5-16.6-4.8-24.7c-4.4-10.6-12.4-18.5-21.8-24.9c-13.5-9.2-28.7-14.1-45.1-13.9c-14.9,0.2-29.3,4.4-42.6,11l-1.5,0.7
			l-0.8-1.5c-7.5-13.6-19.4-24.8-33.1-32c-11-5.7-24.1-9.2-36.6-7.6l-2.2,0.3l0.3-2.2c0.7-5.9,2.2-12.1,4.2-17.7
			c1.3-3.6,3-7.3,5.1-10.6l1.5-2.3l1.5,2.3c6.9,10.7,17.4,19.6,28.6,25.7c1.6,0.9,3.3,1.7,5,2.5c13.2,6.2,28.9,9.4,43.4,6.3
			c3-0.7,5-3.6,4.3-6.7c-0.6-3-3.6-5-6.7-4.4c-13.6,2.9-28.8-1.1-40.8-7.6c-11.7-6.4-23.5-16.8-28.5-29.6v0v0c0-1.3-1.1-2.4-2.3-3.1
			c-17.6-10.5-32.6-25.2-35.1-46.5c-2.5-20.9,7.9-42.6,18.3-60c8.2-13.6,17.6-26.6,26.8-39.5c1.3-1.7,2.2-2.9,2.1-5.1
			c-1.4-23.5,5.4-47.9,16.6-68.4c9.6-17.5,25.6-37.3,44.9-44.6c2.2-0.8,3.7-3,3.6-5.5c-1-32.6,33.2-68.1,59-84.3l1.8-1.2l0.8,2
			c11.2,31.1,37,33.8,65.9,36.6c4,0.4,7.9,0.8,11.9,1.4c15.6,2.2,34.5,6.4,45.6,18.4c8.5,9.2,10.6,21,9.4,33.1
			c-1.8,18.2-11.5,36.9-29.6,43.3c-11.6,4.1-24.4,2.5-35.9-1.2c-8.1-2.7-17.9-2.6-26.4-2.8c-16.1-0.5-32.1-1.9-41.3-17
			c-1.6-2.7-5.1-3.5-7.8-1.9c-2.6,1.6-3.5,5.1-1.9,7.8c6.7,11,15.2,17.7,27.9,20.2c15.1,3,31.2-0.3,46.1,4.4
			c13.9,4.5,29,6.1,43.1,1.2c22.4-7.9,34.9-30.1,37.1-52.8c2.2-21.9-4.8-38.5-23.2-50.8l-0.9-0.6l0.2-1.1c1.4-8.8,4.2-17.3,9.4-24.6
			c6.6-9.3,16.1-15.2,26.8-18.9c7-2.4,3.4-13.1-3.7-10.7c-13,4.5-24.3,11.7-32.3,23c-5.3,7.5-8.6,15.9-10.5,24.8l-0.4,2l-1.9-0.7
			c-12.8-4.9-26.8-6.2-40.4-7.5c-26.3-2.6-50.2-5.4-58.1-35l-0.1-0.6l0.2-0.6c3.9-9.5,9.6-18,16.9-25.2c29.3-29,81-35.7,119.6-25.8
			c0.6,0.2,1.3,0.2,1.9,0.1c17.6-1.6,31.9,6.6,41.5,21.2c15,22.6,15.7,53.7,6.7,78.8v0c0,0.9-0.2,1.9,0,2.8c1.5,8,2.4,16.3,2.9,24.5
			c0.5,9.5,0.6,19,0,28.5c-1.1,18.1-4.8,41.7-15.6,56.7l-0.1,0.1l-0.1,0.1c-21.9,22.7-43.6,43.7-72.7,56.9c-0.2,0.1-0.3,0.2-0.5,0.2
			c-33.7,19.1-60,23.2-97.9,15.1c-1.5-0.3-3.1,0-4.4,0.9l0,0c-13.7,9-26.4,11.4-42.3,7.1l-0.5-0.1l-0.3-0.4
			c-7.1-7.7-11.5-16.7-12.2-27.3c-1-14.2,4.7-28.6,11-41.1c3.3-6.6-6.8-11.7-10.1-5c-7,14-12.9,30-12.2,45.9
			c0.6,11.5,4.6,21.7,11.7,30.8l1,1.3l-1.2,1.1c-11.8,10.7-19.6,25.2-23.5,40.6l-1.1,4.5l-2.1-4.1c-7.1-13.6-16.8-21.9-31.1-28
			c-6.8-2.9-11.2,7.5-4.4,10.4c6.7,2.8,12.6,6.6,17.5,11.9c5.1,5.5,8.6,12.1,11.4,19c3.4,8.4,5.7,17.4,8,26.2l-0.1,0.1v0.1
			c2,10.1,5.2,19.7,10,28.8c9,16.8,42.4,23.9,60,23.9h0h0c40.8,3,84,30.6,95,71v0c5,17.8,15,34.2,26.7,48.2
			c4.8,5.7,13.4-1.6,8.7-7.2c-11-13.1-20.9-28.6-24.8-45.4c-2.8-12-2.5-24.3,2.5-35.7c7.4-16.9,23.9-28.8,42-31.7
			c16-2.5,32.2,2.6,40.6,17.1l0,0.1l0.1,0.1c16.3,40.7,27.8,97.6,6.3,138.3c-1,2-0.8,4.4,0.6,6.1c13.8,17.7,19.4,42.2,17.8,64.3
			c-1,13.6-4,27.3-11.1,39.1c-4.6,7.6-10,12.8-16.6,18.5c-0.6,0.5-0.9,1.1-1.1,1.8c-0.6,2.3,1.3,4.5,3.1,5.6
			c14.7,9.2,22.7,24.3,22.4,41.6c-0.3,14.3-6.8,30-18.3,38.8l-0.1,0.1l-0.1,0.1c-17.7,9.1-39.5,10.4-58.8,6.5
			c-18.1-3.6-37.9-12.7-48.8-28.2L546,1026.8z M576.2,1001.3c7.8,7.6,18.9,12.8,29.3,15.7c10.2,2.9,21.9,4.3,32.4,2.6
			c2-0.4,3.6-1.4,4.3-3.4c0.3-0.9,0.4-2,0.2-3c-0.5-3.3-3-5.2-6.4-4.7c-8.8,1.5-18.8,0.2-27.3-2.2c-8.7-2.4-18.2-6.8-24.8-13.1
			c-2.2-2.1-5.8-2.1-8,0.2S574,999.2,576.2,1001.3L576.2,1001.3z M323.7,817.3c16.1,13.3,42.5,14.9,60.5,4.9l1-0.6l0.9,0.7
			c14.5,11.3,39.3,17.5,57.4,14.6c2-0.3,3.6-1.4,4.3-3.4c0.3-1,0.5-2,0.3-3c-0.5-3.3-3-5.3-6.4-4.7c-8.6,1.4-18.7,0.1-27.1-2.1
			c-8.7-2.4-18.7-6.7-25.1-13.2c-1.6-1.7-5.4-1.9-7.2-0.5c-14,10.5-38,9.8-51.5-1.4C325.2,803.9,318,812.6,323.7,817.3L323.7,817.3z
			 M496.1,384.2c7.9,7.6,18.9,12.8,29.3,15.7c10.2,2.9,21.9,4.3,32.5,2.6c2-0.3,3.6-1.4,4.3-3.4c0.3-1,0.5-2,0.3-3
			c-0.5-3.3-3-5.3-6.4-4.7c-8.8,1.4-18.8,0.2-27.3-2.2c-8.7-2.4-18.2-6.8-24.8-13.1C498.6,371,490.8,379.1,496.1,384.2L496.1,384.2z
			"/>
	</g>
	<g>
		<path fill="#333333" d="M540.5,1133.1c4.3-14.7,14.6-24.6,25.7-30.7c9.2-5,23.9-9.4,34.5-7.7c9.4,1.5,7.6,16.1-2.7,14.5
			c-5.3-0.7-15.3,1-24.7,6.2c-9,4.9-17.1,13-19.5,25.2c13.8,31.9,49.3,23.8,70.1,2.8c3.4-3.5,8.7-6.3,12.9-10.4
			c20.5-19.9,25.5-52.3,7.8-75.7c-19.1,8.3-41.8,9.7-62.6,5.5c-20.4-4.1-39.4-13.6-51.8-27.1c-11.4,9.1-24,14.1-36.1,16.2
			c-18.3,3.2-36-0.2-47.5-6.1c-3.6-1.9-5.1-6.3-3.3-9.9c1.8-3.6,6.3-5.1,9.9-3.3c9.1,4.6,23.3,7.3,38.3,4.7
			c11.7-2,23.8-7.3,34.4-17.6l6.2-6.1l5,7.1c9.7,13.8,27.7,23.4,47.7,27.5c19.6,3.9,40.8,2.3,57.7-6.3c11.2-8.5,17.4-23.7,17.7-37.4
			c0.3-16.9-7.5-31.3-21.6-40.1c-4.4-2.8-5.2-7.6-2.2-10.2c9.8-8.4,24.6-21.2,27.1-56.4c1.7-23.1-4.7-46.8-17.4-63.1
			c-1.8-2.3-2.1-5.4-0.7-8c21.2-40.3,9.7-96.7-6.4-136.9c-8-13.9-23.4-18.7-38.7-16.3c-17.5,2.8-33.5,14.3-40.6,30.6
			c-8.5,19.3-5.3,46.6,22,79.3c6.2,7.5-5.1,16.9-11.3,9.5c-14.6-17.4-23.1-33.9-27.1-48.8c-11.2-39.7-53.3-67.6-93.4-69.6
			c-19,0-52.2-7.7-61.3-24.9c-5-9.3-8.3-19.3-10-29.4c-7.8-29.6-14.2-46.7-36.1-56c-9-3.8-3.2-17.4,5.7-13.6c16,6.8,25.3,16,32,28.8
			c4.1-16.2,12.2-30.8,24-41.4c-19.4-25-12.7-52.7,0.3-78.7c4.3-8.7,17.6-2.1,13.2,6.6c-11.2,22.4-17.9,45.7,1,66.4
			c15.5,4.1,27.6,1.9,40.9-6.9c1.6-1.1,3.7-1.6,5.8-1.2c37.7,8,63.6,3.9,96.7-14.9c0.2-0.1,0.4-0.2,0.6-0.3
			c28.9-13.2,50.4-34,72.2-56.6c18.1-25.1,18-79.1,12.6-108.4c-0.2-1.3-0.1-2.6,0.3-3.7c7.8-24.6,8-55.1-6.7-77.3
			c-9.3-14.1-23.2-22-40.1-20.4c-0.8,0.1-1.7,0-2.5-0.2c-46.7-11.9-114.3,0.6-134.5,50c7.7,28.9,31.4,31.3,56.6,33.7
			c13.8,1.3,27.9,2.7,40.8,7.6c2-9.3,5.5-17.9,10.8-25.4c7.3-10.3,18-18.4,33.2-23.7c9.2-3.2,14,10.8,4.8,14
			c-12.1,4.2-20.4,10.4-26,18.2c-4.8,6.8-7.7,14.9-9.1,23.9c18.9,12.6,26.2,29.8,24,52.4c-2.3,23.4-15.2,46.2-38.3,54.3
			c-11.9,4.2-26.6,4.6-44.2-1.1c-24.6-8-54.9,7.3-74.9-25.4c-2.1-3.5-1-8,2.4-10.1c3.5-2.1,8-1,10.1,2.4
			c14.3,23.3,45.7,12.2,66.8,19c14.2,4.6,25.7,4.4,34.8,1.3c17.4-6.2,26.7-24.3,28.5-41.8c4.1-40.6-32.8-47.7-65.2-50.9
			c-28.7-2.8-55.8-5.5-67.4-37.8c-25.2,15.9-59.2,50.9-58.2,82.8c0.1,3.1-1.8,6.1-4.8,7.2c-16.2,6.1-32.3,22.6-44,43.8
			c-11.1,20.2-17.8,44.3-16.4,67.4c0.2,2.8-1,4.2-2.4,6.2c-9.3,12.9-18.9,26.3-26.7,39.4c-22.3,37.2-32.1,75.1,16.3,104.1
			c1.6,0.9,2.7,2.4,3.2,4.1c4.2,11.3,14.7,21.7,27.5,28.7c12.5,6.8,27,10.1,39.5,7.4c4-0.8,7.9,1.7,8.7,5.7c0.8,4-1.7,7.9-5.7,8.7
			c-16,3.5-34.2-0.5-49.6-8.9c-12-6.5-22.5-15.7-29.2-26.3c-2,3.1-3.6,6.6-4.9,10.3c-2.2,6.2-3.6,12.4-4.2,17.4
			c11.9-1.6,25.3,1.3,37.7,7.7c13.5,7,25.9,18.4,33.8,32.7c14.4-7.1,29-11,43.3-11.2c16-0.2,31.6,4.3,46.1,14.2
			c24.6,16.8,26,34.7,27.4,50.9c0.8,10.1,1.6,19.3,10.6,25.5c10.7,7.5,22.7,6.4,34.2,5.4c14.5-1.3,28.6-2.6,42.3,9
			c17.1,14.4,26.3,46.1,24.5,68c-2.8,33.5-26,61.8-62.3,59c-1.9-0.2-3.3-0.8-4.7-2.2c-25-26-64.9-15.6-90.1,4.3
			c-0.8,0.7-1,0.8-2,1.1c-19.9,7.6-37.9,3.4-52.5-12c-6.6-7.1,4.1-17.2,10.8-10.1c10.1,10.7,21.5,13.7,35.5,8.7
			c30.6-23.6,76.2-33.3,106.7-4.4c26.7,0.8,41.7-21.3,43.7-45.5c1.5-18.6-4.4-39.3-19.7-55.9c-8.9-7.2-19.8-6.2-31.1-5.2
			c-14.1,1.3-28.7,2.6-43.8-7.9c-14.9-10.3-15.9-22.8-17-36.5c-1-12.8-2.2-27-20.9-39.8c-11.9-8.1-24.6-11.8-37.6-11.7
			c-14,0.2-28.6,4.8-43.1,13c-3.8,2.1-9-0.1-10.6-3.9c-5.9-14.3-17.5-25.6-30.3-32.3c-11.9-6.2-24.5-8.3-34.2-5
			c-58.5,57.4-35.3,169.4,41.9,155.9c11.7-2.1,23.9-7.3,34.4-17.6c3.2-3.1,8.6-2.7,11.2,1c9.5,13.9,27.7,23.4,47.7,27.4
			c19.8,4,41.3,2.3,58.3-6.6c3.6-1.9,8-0.5,9.9,3.1c1.9,3.6,0.5,8.1-3.1,10c-20.1,10.5-45.1,12.6-68,8
			c-20.4-4.1-39.3-13.5-51.8-27.1c-11.4,9.1-23.9,14.1-36.1,16.2c-14.5,2.6-28.6,0.9-39.5-2.7c-6.2,26.6,13.9,63.2,42,67.5
			c3.3,0.5,5.9,3.2,6.2,6.5c2.6,24.4,17.5,41.1,41,47.5c3.9,1,6.2,5.1,5.2,9c-6.6,24.7,2.6,49.3,21.7,65.7
			c19.6,16.8,46.8,22.6,71,12.5c4.2-1.8,9.1,0.8,10.1,5.2C505,1119.5,520.3,1129.2,540.5,1133.1L540.5,1133.1z M644.4,672.6
			c25.8-54.9,42.2-156.6-3.7-204.9c-9.9,10.1-20.1,20-31,29c22.2,13.7,40.2,41.6,31.8,68.3c-2.9,9.3-17,4.9-14.1-4.4
			c6.9-21.8-12-44.9-30.5-54.2c-8.5,6-17.7,11.4-27.8,16c-35.1,19.9-63.8,25-103.8,17c-15.6,9.6-31,12-48.9,7.6
			c-27.2,22-30.6,65.9-14.8,95.6c4.6,8.7,26.2,14.7,35,16.1c23.1,3.5,46.1-1.8,62.3-19c6.6-7.1,17.4,3,10.8,10.1
			c-6.9,7.3-15,13.2-24.2,17.3c22.3,8.2,42.9,22.6,57,42c0.9-3.8,2.1-7.4,3.6-10.8c6.9-15.7,20-28,35.7-34.6
			c17.1-29.5,3.8-79-33.2-80.6c-4.1-0.2-7.2-3.6-7.1-7.7c0.2-4.1,3.6-7.2,7.7-7.1c43.2,2,64.3,52.8,51.1,90.4
			C616.7,656.6,632.9,660.9,644.4,672.6L644.4,672.6z M381.5,1018.2c-24-8.9-40-27.4-44.4-52.8c-35.2-10.1-57.6-52.8-47.8-87.6
			c-55.6-39.1-49.2-123.9-3.1-170.2c-0.1-7,1.5-18.4,5.3-29c2.2-6,5.1-11.9,8.9-16.9c-50.2-34.5-38.7-77.5-13.6-119.4
			c8.3-13.8,17.7-27,26.9-39.8c-1-25.2,6.4-51.1,18.3-72.7c12.2-22.2,29.2-40.1,47-48.5c2.1-37.9,40-77,71.4-94.5
			c23-56.2,96.7-72.3,150.6-59c21.8-1.5,40.4,9,52.4,27.1c16.9,25.5,17.6,59.8,8.9,88.4c5.6,32.7,4.9,83.3-12.2,112.8
			c54.3,54.8,35.3,168.7,3.7,230.9c16.7,42.8,27.1,99.2,6.9,142.5c13.1,18.9,19.6,44.5,17.8,69.4c-1.6,21.6-9.3,42.8-24.3,58.7
			c13.9,12,21.3,28.8,20.9,47.2c-0.3,16.1-6.7,32.7-18.1,44.2c26.4,35.7,12,81.8-23,105.3c-27.9,27.8-74.2,33.8-92.8-6.1
			c-23.9-3.8-44.3-14.9-53.1-38.5c-27.5,8.4-57,0.8-78.6-17.7C387.9,1073.6,376.5,1046.4,381.5,1018.2L381.5,1018.2z M308.6,808.2
			c-7.5-6.2,2-17.6,9.4-11.4c12.8,10.6,36,11.3,49.3,1.3c3.1-2.3,7.7-1.3,9.5,0.6c11.1,11.3,35.4,17.3,50.6,14.8
			c9.6-1.5,12,13,2.4,14.6c-18.5,3-43.8-3.3-58.8-14.9C352.4,823.6,325.2,821.9,308.6,808.2L308.6,808.2z M561,992.1
			c-2.9-2.8-3-7.5-0.2-10.4c2.8-2.9,7.5-3,10.5-0.2c11.7,11.3,34.9,17.4,50.6,14.8c9.6-1.6,12,13,2.4,14.6
			C603.9,1014.3,576,1006.6,561,992.1L561,992.1z M481,375.1c-7-6.8,3.2-17.4,10.2-10.7c11.7,11.3,34.9,17.4,50.6,14.8
			c9.6-1.5,12,13,2.4,14.6C523.9,397.2,495.9,389.5,481,375.1L481,375.1z"/>
		<path fill="#333333" d="M859.8,1133.1c-4.3-14.7-14.5-24.6-25.7-30.7c-9.2-5-23.9-9.4-34.5-7.7c-9.4,1.5-7.6,16.1,2.7,14.5
			c5.3-0.7,15.3,1,24.7,6.2c9,4.9,17.1,13,19.4,25.2c-13.8,31.9-49.3,23.8-70.1,2.8c-3.4-3.5-8.7-6.3-12.9-10.4
			c-20.5-19.9-25.5-52.3-7.8-75.7c19.1,8.3,41.8,9.7,62.7,5.5c20.4-4.1,39.3-13.6,51.8-27.1c11.4,9.1,23.9,14.1,36.1,16.2
			c18.4,3.2,36-0.2,47.5-6.1c3.6-1.9,5.1-6.3,3.3-9.9c-1.8-3.6-6.3-5.1-9.9-3.3c-9.1,4.6-23.3,7.3-38.3,4.7
			c-11.7-2-23.9-7.3-34.4-17.6l-6.2-6.1l-5,7.1c-9.7,13.8-27.7,23.4-47.7,27.5c-19.6,3.9-40.8,2.3-57.7-6.3
			c-11.2-8.5-17.4-23.7-17.6-37.4c-0.3-16.9,7.4-31.3,21.6-40.1c4.4-2.8,5.2-7.6,2.2-10.2c-9.7-8.4-24.6-21.2-27.1-56.4
			c-1.7-23.1,4.7-46.8,17.5-63.1c1.8-2.3,2.1-5.4,0.7-8c-21.2-40.3-9.7-96.7,6.4-136.9c8-13.9,23.4-18.7,38.7-16.3
			c17.5,2.8,33.5,14.3,40.6,30.6c8.5,19.3,5.3,46.6-22,79.3c-6.2,7.5,5.1,16.9,11.3,9.5c14.6-17.4,23.1-33.9,27.1-48.8
			c11.2-39.7,53.4-67.6,93.4-69.6c19,0,52.2-7.7,61.3-24.9c5-9.3,8.3-19.3,10-29.4c7.8-29.6,14.2-46.7,36.2-56
			c8.9-3.8,3.2-17.4-5.7-13.6c-16,6.8-25.2,16-32,28.8c-4.1-16.2-12.2-30.8-24-41.4c19.4-25,12.7-52.7-0.3-78.7
			c-4.3-8.7-17.6-2.1-13.2,6.6c11.2,22.4,17.9,45.7-1,66.4c-15.5,4.1-27.6,1.9-40.9-6.9c-1.6-1.1-3.7-1.6-5.8-1.2
			c-37.7,8-63.5,3.9-96.7-14.9c-0.2-0.1-0.4-0.2-0.6-0.3c-28.9-13.2-50.4-34-72.2-56.6c-18.1-25.1-17.9-79.1-12.6-108.4
			c0.2-1.3,0.1-2.6-0.3-3.7c-7.8-24.6-8-55.1,6.7-77.3c9.3-14.1,23.2-22,40.1-20.4c0.8,0.1,1.7,0,2.5-0.2
			c46.7-11.9,114.3,0.6,134.5,50c-7.8,28.9-31.5,31.3-56.6,33.7c-13.8,1.3-27.9,2.7-40.8,7.6c-2-9.3-5.5-17.9-10.8-25.4
			c-7.3-10.3-18-18.4-33.2-23.7c-9.2-3.2-14,10.8-4.8,14c12.1,4.2,20.4,10.4,26,18.2c4.8,6.8,7.7,14.9,9.1,23.9
			c-18.9,12.6-26.3,29.8-24,52.4c2.3,23.4,15.2,46.2,38.3,54.3c11.9,4.2,26.6,4.6,44.2-1.1c24.6-8,54.9,7.3,74.9-25.4
			c2.1-3.5,1-8-2.4-10.1c-3.5-2.1-8-1-10.1,2.4c-14.2,23.3-45.7,12.2-66.8,19c-14.2,4.6-25.7,4.4-34.8,1.3
			c-17.4-6.2-26.7-24.3-28.5-41.8c-4.1-40.6,32.8-47.7,65.3-50.9c28.7-2.8,55.7-5.5,67.4-37.8c25.2,15.9,59.2,50.9,58.2,82.8
			c-0.1,3.1,1.8,6.1,4.8,7.2c16.2,6.1,32.3,22.6,44,43.8c11.1,20.2,17.8,44.3,16.4,67.4c-0.2,2.8,1,4.2,2.4,6.2
			c9.3,12.9,18.9,26.3,26.7,39.4c22.3,37.2,32.1,75.1-16.3,104.1c-1.6,0.9-2.7,2.4-3.2,4.1c-4.2,11.3-14.7,21.7-27.5,28.7
			c-12.5,6.8-27,10.1-39.5,7.4c-4-0.8-7.9,1.7-8.8,5.7c-0.8,4,1.7,7.9,5.7,8.7c16,3.5,34.2-0.5,49.6-8.9c12-6.5,22.5-15.7,29.2-26.3
			c2,3.1,3.6,6.6,4.9,10.3c2.2,6.2,3.6,12.4,4.2,17.4c-11.9-1.6-25.3,1.3-37.6,7.7c-13.5,7-26,18.4-33.8,32.7
			c-14.4-7.1-29-11-43.3-11.2c-16.1-0.2-31.6,4.3-46.1,14.2c-24.6,16.8-26,34.7-27.4,50.9c-0.8,10.1-1.6,19.3-10.6,25.5
			c-10.7,7.5-22.6,6.4-34.2,5.4c-14.6-1.3-28.6-2.6-42.3,9c-17.1,14.4-26.3,46.1-24.5,68c2.8,33.5,26,61.8,62.3,59
			c1.9-0.2,3.3-0.8,4.7-2.2c25-26,64.9-15.6,90.1,4.3c0.8,0.7,0.9,0.8,1.9,1.1c19.9,7.6,37.9,3.4,52.5-12
			c6.6-7.1-4.1-17.2-10.7-10.1c-10.2,10.7-21.5,13.7-35.5,8.7c-30.6-23.6-76.2-33.3-106.7-4.4c-26.7,0.8-41.7-21.3-43.7-45.5
			c-1.5-18.6,4.4-39.3,19.7-55.9c8.9-7.2,19.8-6.2,31.1-5.2c14.1,1.3,28.7,2.6,43.8-7.9c14.9-10.3,15.9-22.8,17-36.5
			c1-12.8,2.2-27,20.9-39.8c11.9-8.1,24.6-11.8,37.6-11.7c14,0.2,28.6,4.8,43.1,13c3.8,2.1,9-0.1,10.6-3.9
			c5.9-14.3,17.5-25.6,30.3-32.3c11.9-6.2,24.5-8.3,34.2-5c58.5,57.4,35.3,169.4-41.9,155.9c-11.7-2.1-23.9-7.3-34.4-17.6
			c-3.1-3.1-8.6-2.7-11.2,1c-9.4,13.9-27.7,23.4-47.7,27.4c-19.8,4-41.3,2.3-58.3-6.6c-3.6-1.9-8-0.5-9.9,3.1
			c-1.9,3.6-0.5,8.1,3.1,10c20.1,10.5,45.1,12.6,68,8c20.4-4.1,39.3-13.5,51.8-27.1c11.4,9.1,23.9,14.1,36.1,16.2
			c14.5,2.6,28.6,0.9,39.5-2.7c6.1,26.6-14,63.2-42,67.5c-3.3,0.5-5.9,3.2-6.2,6.5c-2.6,24.4-17.5,41.1-41,47.5
			c-3.9,1-6.2,5.1-5.2,9c6.6,24.7-2.6,49.3-21.7,65.7c-19.6,16.8-46.8,22.6-71,12.5c-4.3-1.8-9.1,0.8-10.1,5.2
			C895.2,1119.5,880,1129.2,859.8,1133.1L859.8,1133.1z M755.9,672.6c-25.8-54.9-42.2-156.6,3.7-204.9c9.9,10.1,20.1,20,31,29
			c-22.2,13.7-40.2,41.6-31.8,68.3c2.9,9.3,17,4.9,14.1-4.4c-6.8-21.8,12-44.9,30.5-54.2c8.6,6,17.7,11.4,27.8,16
			c35.1,19.9,63.8,25,103.8,17c15.6,9.6,31,12,49,7.6c27.2,22,30.6,65.9,14.7,95.6c-4.6,8.7-26.2,14.7-35,16.1
			c-23,3.5-46.1-1.8-62.3-19c-6.6-7.1-17.4,3-10.7,10.1c6.9,7.3,15,13.2,24.2,17.3c-22.3,8.2-42.9,22.6-57,42
			c-0.9-3.8-2.1-7.4-3.6-10.8c-6.9-15.7-20-28-35.7-34.6c-17.1-29.5-3.8-79,33.2-80.6c4.1-0.2,7.2-3.6,7-7.7
			c-0.2-4.1-3.6-7.2-7.7-7.1c-43.2,2-64.3,52.8-51.1,90.4C783.6,656.6,767.3,660.9,755.9,672.6L755.9,672.6z M1018.8,1018.2
			c24-8.9,40-27.4,44.3-52.8c35.2-10.1,57.6-52.8,47.8-87.6c55.6-39.1,49.2-123.9,3.1-170.2c0.1-7-1.5-18.4-5.3-29
			c-2.2-6-5.1-11.9-8.9-16.9c50.2-34.5,38.8-77.5,13.6-119.4c-8.3-13.8-17.7-27-26.9-39.8c0.9-25.2-6.5-51.1-18.3-72.7
			c-12.2-22.2-29.2-40.1-47-48.5c-2.1-37.9-40-77-71.4-94.5c-23-56.2-96.7-72.3-150.6-59c-21.8-1.5-40.4,9-52.4,27.1
			c-16.9,25.5-17.6,59.8-8.9,88.4c-5.6,32.7-4.9,83.3,12.2,112.8c-54.3,54.8-35.3,168.7-3.7,230.9c-16.7,42.8-27.1,99.2-6.9,142.5
			c-13.1,18.9-19.6,44.5-17.8,69.4c1.6,21.6,9.3,42.8,24.3,58.7c-13.9,12-21.3,28.8-20.9,47.2c0.3,16.1,6.7,32.7,18.1,44.2
			c-26.4,35.7-12,81.8,23,105.3c27.9,27.8,74.2,33.8,92.8-6.1c23.9-3.8,44.3-14.9,53.1-38.5c27.5,8.4,57,0.8,78.6-17.7
			C1012.4,1073.6,1023.7,1046.4,1018.8,1018.2L1018.8,1018.2z M1091.7,808.2c7.5-6.2-2-17.6-9.4-11.4c-12.8,10.6-35.9,11.3-49.3,1.3
			c-3.1-2.3-7.7-1.3-9.5,0.6c-11.1,11.3-35.3,17.3-50.6,14.8c-9.6-1.5-11.9,13-2.3,14.6c18.5,3,43.8-3.3,58.8-14.9
			C1047.9,823.6,1075.1,821.9,1091.7,808.2L1091.7,808.2z M839.3,992.1c2.9-2.8,3-7.5,0.2-10.4c-2.8-2.9-7.5-3-10.4-0.2
			c-11.7,11.3-34.9,17.4-50.6,14.8c-9.6-1.6-12,13-2.4,14.6C796.4,1014.3,824.3,1006.6,839.3,992.1L839.3,992.1z M919.3,375.1
			c7-6.8-3.3-17.4-10.3-10.7c-11.7,11.3-34.9,17.4-50.6,14.8c-9.6-1.5-11.9,13-2.3,14.6C876.4,397.2,904.4,389.5,919.3,375.1
			L919.3,375.1z"/>
	</g>
</g>
</svg>
