<?xml version="1.0" encoding="utf-8"?>
<!-- Generator: Adobe Illustrator 25.3.0, SVG Export Plug-In . SVG Version: 6.00 Build 0)  -->
<svg class="animated" version="1.1" id="freepik_stories-static-assets" xmlns:svgjs="http://svgjs.com/svgjs"
	 xmlns="http://www.w3.org/2000/svg" xmlns:xlink="http://www.w3.org/1999/xlink" x="0px" y="0px" width="251.5px" height="378.9px"
	 viewBox="0 0 251.5 378.9" style="enable-background:new 0 0 251.5 378.9;" xml:space="preserve">
<style type="text/css">
	.st0{display:none;}
	.st1{display:inline;fill:#F5F5F5;}
	.st2{display:inline;fill:#E0E0E0;}
	.st3{display:inline;}
	.st4{fill:#37474F;}
	.st5{fill:#455A64;}
	.st6{fill:#263238;}
	.st7{fill:#E0E0E0;}
	.st8{fill:#FAFAFA;}
	.st9{fill:#EBEBEB;}
	.st10{fill:#F0DB4F;}
	.st11{opacity:0.8;fill:#FFFFFF;enable-background:new    ;}
	.st12{opacity:0.4;}
	.st13{fill:#FFFFFF;}
	.st14{opacity:0.15;enable-background:new    ;}
	.st15{opacity:0.6;fill:#FFFFFF;enable-background:new    ;}
	.st16{opacity:0.5;fill:#FFFFFF;enable-background:new    ;}
	.st17{opacity:0.35;enable-background:new    ;}
	.st18{opacity:0.25;enable-background:new    ;}
	.st19{opacity:0.7;fill:#F0DB4F;enable-background:new    ;}
	.st20{opacity:0.55;enable-background:new    ;}
	.st21{opacity:0.4;enable-background:new    ;}
	.st22{opacity:0.5;fill:#F0DB4F;enable-background:new    ;}
	.st23{fill:#F28F8F;}
	.st24{fill:#F5F5F5;}
	.st25{fill:#FFA8A7;}
	.st26{opacity:0.1;enable-background:new    ;}
	.st27{fill:#E6E6E6;}
	.st28{opacity:0.7;}
	svg #freepik_stories-static-assets:not(.animated) .animable {
  opacity: 0;
}
svg #freepik_stories-static-assets .animated #freepik--Floor--inject-203 {
  animation: 1s 1 forwards cubic-bezier(0.36, -0.01, 0.5, 1.38) slideDown;
  animation-delay: 0s;
}
svg#freepik_stories-static-assets.animated #freepik--Shadows--inject-203 {
  animation: 1s 1 forwards cubic-bezier(0.36, -0.01, 0.5, 1.38) slideLeft;
  animation-delay: 0s;
}
svg#freepik_stories-static-assets.animated #freepik--Photos--inject-203 {
  animation: 1s 1 forwards cubic-bezier(0.36, -0.01, 0.5, 1.38) zoomOut;
  animation-delay: 0s;
}
svg#freepik_stories-static-assets.animated #freepik--Window--inject-203 {
  animation: 1s 1 forwards cubic-bezier(0.36, -0.01, 0.5, 1.38) zoomIn,
    2.5s Infinite linear floating;
  animation-delay: 0s, 1s;
}
svg#freepik_stories-static-assets.animated #freepik--Icons--inject-203 {
  animation: 1.6s 1 forwards cubic-bezier(0.36, -0.01, 0.5, 1.38) slideDown,
    2.5s Infinite linear floating;
  animation-delay: 0s, 1.6s;
}
svg#freepik_stories-static-assets.animated #freepik--Character--inject-203 {
  animation: 1s 1 forwards cubic-bezier(0.36, -0.01, 0.5, 1.38) slideDown;
  animation-delay: 0s;
}
  @keyframes slideDown {
  0% {
    opacity: 0;
    transform: translateY(-30px);
  }
  100% {
    opacity: 1;
    transform: translateY(0);
  }
}

@keyframes slideLeft {
  0% {
    opacity: 0;
    transform: translateX(-30px);
  }
  100% {
    opacity: 1;
    transform: translateX(0);
  }
}
@keyframes zoomOut {
  0% {
    opacity: 0;
    transform: scale(1.5);
  }
  100% {
    opacity: 1;
    transform: scale(1);
  }
}
@keyframes zoomIn {
  0% {
    opacity: 0;
    transform: scale(0.5);
  }
  100% {
    opacity: 1;
    transform: scale(1);
  }
}
@keyframes floating {
  0% {
    opacity: 1;
    transform: translateY(0px);
  }
  50% {
    transform: translateY(-10px);
  }
  100% {
    opacity: 1;
    transform: translateY(0px);
  }
}
.animator-hidden {
  display: none;
}
}
}
</style>

<g id="freepik--Window--inject-203"  class="animable" style="transform-origin: 294.125px 195.542px;">
	<g id="freepik--window--inject-203"  class="animable" style="transform-origin: 294.125px 195.542px;">
		<path id="elwlva2fjfjq" class="st5" d="M151.2,45.3v224.3c-0.2,3.3-1.9,6.3-4.7,8.1L17.7,352c-0.5,0.3-1,0.4-1.5,0.4
			c-0.2,0-0.4,0-0.6-0.1c-0.1,0-0.3-0.1-0.4-0.1l-0.2-0.1l-0.3-0.2c-0.1-0.1-0.2-0.1-0.3-0.2c-0.4-0.3-0.7-0.8-0.9-1.2
			c-0.3-0.7-0.5-1.5-0.5-2.4V125c0.2-3.3,1.9-6.3,4.7-8.1l128.9-74.3c0.9-0.6,2.1-0.8,3.1-0.4c0.1,0.1,0.3,0.1,0.4,0.2l0,0
			c0.1,0.1,0.2,0.2,0.3,0.3c0.1,0.1,0.1,0.1,0.1,0.2c0.1,0.1,0.1,0.2,0.1,0.2c0.1,0.2,0.2,0.4,0.3,0.6c0.1,0.1,0.1,0.3,0.1,0.4
			c0,0,0,0.1,0,0.1c0,0.1,0.1,0.3,0.1,0.4C151.2,44.9,151.2,45.1,151.2,45.3z"/>
		<path id="el185i7p6oyn1" class="st10" d="M149.7,42.2c-1-0.4-2.2-0.2-3.1,0.4L17.7,116.9c-2.8,1.8-4.5,4.8-4.7,8.1v15.2l-5.9-3.5
			v-15.1c0.2-3.3,1.9-6.2,4.6-8l128.9-74.3c1-0.7,2.3-0.8,3.4-0.3C144.8,39.5,148.7,41.7,149.7,42.2z"/>
		<path id="eldmpal3qekhe" class="st10" d="M151.2,45.3c0-2.9-2.1-4.1-4.6-2.7L17.7,116.9c-2.8,1.8-4.5,4.8-4.7,8.1v15.2l138.2-79.6
			V45.3z"/>
		<g id="elin4h6pqihq">
			<g id="elc36qon6j3wh" class="st12">
				<path id="ely3isbjp133o" class="st13" d="M146.5,42.6L17.7,116.9c-1.4,0.9-2.5,2.1-3.3,3.5l-5.9-3.4c0.8-1.4,1.9-2.6,3.2-3.4
					l128.8-74.3c1-0.7,2.3-0.8,3.4-0.3c0.8,0.5,4.7,2.7,5.7,3.2C148.6,41.8,147.5,42,146.5,42.6z"/>
			</g>
		</g>
		<g id="elv9mzng6ske">
			<path id="eldorwmshbfr6" class="st14" d="M7.1,136.7v-15.1c0.1-1.6,0.6-3.3,1.4-4.7l5.9,3.4c-0.9,1.4-1.4,3-1.4,4.7v15.2
				L7.1,136.7z"/>
		</g>
		<path id="el6ezhdrm5nuv" class="st5" d="M123.1,62.6c-1.5,0.8-2.6,3.3-2.6,5.6s1.2,3.4,2.6,2.5s2.6-3.3,2.6-5.6
			S124.6,61.8,123.1,62.6z"/>
		<path id="elejwhbh7d3t9" class="st5" d="M132.6,57.1c-1.5,0.8-2.6,3.3-2.6,5.6c0,2.2,1.2,3.4,2.6,2.5s2.6-3.3,2.6-5.6
			S134.1,56.3,132.6,57.1z"/>
		<path id="elaj9f6eegd28" class="st5" d="M142.1,51.7c-1.5,0.8-2.6,3.3-2.6,5.6s1.2,3.4,2.6,2.5s2.6-3.3,2.6-5.6
			S143.5,50.8,142.1,51.7z"/>
		<path id="eld0s2ilz674m" class="st4" d="M14.7,352c-0.2-0.1-0.4-0.2-0.6-0.3c-0.4-0.3-0.9-0.5-1.4-0.8l0,0l-0.8-0.4h-0.1
			c-0.4-0.2-0.8-0.5-1.2-0.7l-1-0.6c-0.2-0.1-0.4-0.2-0.6-0.3c-0.3-0.2-0.6-0.4-0.8-0.6c-0.3-0.3-0.5-0.6-0.6-0.9
			c-0.4-0.8-0.5-1.6-0.5-2.5v-208l5.9,3.4v207.9c0,0.8,0.2,1.6,0.5,2.4c0.2,0.5,0.5,0.9,0.9,1.2c0.1,0.1,0.2,0.2,0.3,0.2
			C14.6,352,14.7,352,14.7,352z"/>
		<path id="el8s8nw0f026g" class="st10" d="M24.5,152.8c0-0.3,0.1-0.6,0.2-0.9l3.4-6.9c0-0.1,0.1-0.1,0.1-0.2c0,0,0.1-0.1,0.1-0.1
			c0.1-0.1,0.2-0.1,0.3,0c0.1,0.1,0.1,0.2,0.1,0.3v2.3c0,0.2,0,0.5-0.1,0.7c-0.1,0.2-0.1,0.4-0.2,0.6l-1.8,3.7l1.8,1.6
			c0.1,0.1,0.2,0.2,0.2,0.4c0.1,0.2,0.1,0.4,0.1,0.6v2.3c0,0.2,0,0.3-0.1,0.5c-0.1,0.1-0.1,0.2-0.3,0.3h-0.1c0,0-0.1,0-0.1,0
			l-3.4-3.1c-0.2-0.1-0.3-0.4-0.2-0.6V152.8z"/>
		<path id="elmal7d46vm8s" class="st10" d="M36.7,135.5c0.1-0.2,0.1-0.5,0.3-0.7c0.1-0.2,0.3-0.4,0.5-0.5l1.3-0.7
			c0.1-0.1,0.2-0.1,0.3,0c0.1,0.1,0.1,0.2,0.1,0.3c0,0.1,0,0.2,0,0.3l-5.8,24.5c0,0.2-0.1,0.5-0.2,0.7c-0.1,0.2-0.3,0.4-0.5,0.6
			l-1.2,0.7c-0.1,0.1-0.2,0.1-0.3,0c-0.1-0.1-0.1-0.2-0.1-0.3c0-0.1,0-0.2,0-0.3L36.7,135.5z"/>
		<path id="elbajtnkguga" class="st10" d="M45.6,142.4c0,0.3-0.1,0.6-0.2,0.9l-3.4,6.9c0,0.1-0.1,0.1-0.1,0.2c0,0-0.1,0.1-0.1,0.1
			c-0.1,0.1-0.2,0.1-0.3,0c-0.1-0.1-0.1-0.2-0.1-0.4v-2.3c0-0.2,0-0.5,0.1-0.7c0.1-0.2,0.1-0.4,0.2-0.6l1.8-3.7l-1.8-1.6
			c-0.1-0.1-0.2-0.2-0.2-0.4c-0.1-0.2-0.1-0.4-0.1-0.6v-2.3c0-0.2,0-0.3,0.1-0.5c0.1-0.1,0.1-0.2,0.3-0.3h0.1c0,0,0.1,0,0.1,0
			l3.4,3.1c0.2,0.1,0.3,0.4,0.2,0.6L45.6,142.4z"/>
		<path id="el75xkf9qski9" class="st10" d="M54.9,140.8c0.1-0.1,0.2-0.1,0.3,0c0.1,0.1,0.2,0.3,0.1,0.4v2.6c0,0.2-0.1,0.4-0.1,0.6
			c-0.1,0.2-0.2,0.3-0.3,0.4l-1.6,0.9c-0.1,0.1-0.2,0.1-0.3,0c-0.1-0.1-0.1-0.3-0.1-0.4v-2.6c0-0.2,0-0.4,0.1-0.6
			c0.1-0.2,0.2-0.3,0.3-0.4L54.9,140.8z"/>
		<path id="elh39ydzetjl6" class="st10" d="M60.2,137.7c0.1-0.1,0.2-0.1,0.3,0c0.1,0.1,0.2,0.3,0.1,0.4v2.6c0,0.2,0,0.4-0.1,0.6
			c-0.1,0.2-0.2,0.3-0.3,0.4l-1.6,0.9c-0.1,0.1-0.2,0.1-0.3,0c-0.1-0.1-0.2-0.3-0.1-0.4v-2.6c0-0.2,0.1-0.4,0.1-0.6
			c0.1-0.2,0.2-0.3,0.3-0.4L60.2,137.7z"/>
		<path id="els10n7wpci1" class="st10" d="M65.5,134.7c0.1-0.1,0.2-0.1,0.3,0c0.1,0.1,0.1,0.3,0.1,0.4v2.6c0,0.2,0,0.4-0.1,0.6
			c-0.1,0.2-0.2,0.3-0.3,0.4l-1.6,0.9c-0.1,0.1-0.2,0.1-0.3,0c-0.1-0.1-0.1-0.3-0.1-0.4v-2.6c0-0.2,0-0.4,0.1-0.6
			c0.1-0.2,0.2-0.3,0.3-0.4L65.5,134.7z"/>
		<path id="elnk8awhq59k" class="st10" d="M25.9,171.5l77.4-44.7c0.9-0.5,1.7-0.2,1.7,0.8c-0.1,1.1-0.7,2.1-1.7,2.8l-77.4,44.7
			c-0.9,0.5-1.6,0.1-1.6-0.8C24.3,173.2,24.9,172.1,25.9,171.5z"/>
		<path id="elvwvwv0qw5p" class="st13" d="M50.7,200.2l77.4-44.7c0.9-0.5,1.7-0.1,1.7,0.8c-0.1,1.1-0.7,2.1-1.7,2.7l-77.4,44.7
			c-0.9,0.5-1.6,0.1-1.6-0.8C49.2,201.8,49.8,200.8,50.7,200.2z"/>
		<path id="elxcwx54clyhe" class="st7" d="M50.7,228.9l37.1-21.4c0.9-0.5,1.6-0.1,1.6,0.8c-0.1,1.1-0.7,2.1-1.6,2.8l-37.1,21.4
			c-0.9,0.5-1.6,0.2-1.6-0.8C49.2,230.5,49.8,229.5,50.7,228.9z"/>
		<path id="elmhgdbcyhlng" class="st10" d="M109.7,123.1l30.8-17.9c0.9-0.5,1.6-0.2,1.6,0.8c-0.1,1.1-0.7,2.1-1.6,2.7l-30.8,17.9
			c-0.9,0.5-1.7,0.2-1.7-0.8C108.1,124.8,108.8,123.7,109.7,123.1z"/>
		<path id="elrb0ffndcf1" class="st10" d="M25.9,329.3l77.4-44.7c0.9-0.5,1.7-0.1,1.7,0.8c-0.1,1.1-0.7,2.1-1.7,2.8l-77.4,44.7
			c-0.9,0.5-1.6,0.1-1.6-0.8C24.3,330.9,24.9,329.9,25.9,329.3z"/>
		<path id="elc90rgmb4yuf" class="st10" d="M109.7,280.9l30.8-17.9c0.9-0.5,1.6-0.2,1.6,0.8c-0.1,1.1-0.7,2.1-1.6,2.8l-30.8,17.9
			c-0.9,0.5-1.7,0.2-1.7-0.8C108.1,282.5,108.8,281.5,109.7,280.9z"/>
		<path id="ele2cvquw22qn" class="st10" d="M109.7,237.9l30.8-17.9c0.9-0.5,1.6-0.1,1.6,0.8c-0.1,1.1-0.7,2.1-1.6,2.8l-30.8,17.9
			c-0.9,0.5-1.7,0.1-1.7-0.8C108.1,239.6,108.8,238.5,109.7,237.9z"/>
		<path id="el5i66ot7edxb" class="st10" d="M109.7,252.3l30.8-17.9c0.9-0.5,1.6-0.2,1.6,0.8c-0.1,1.1-0.7,2.1-1.6,2.8l-30.8,17.9
			c-0.9,0.5-1.7,0.2-1.7-0.8C108.1,253.9,108.8,252.9,109.7,252.3z"/>
		<path id="el41uno4ss3xl" class="st10" d="M83.4,253.1l17.3-10c0.9-0.5,1.7-0.1,1.7,0.8c-0.1,1.1-0.7,2.2-1.7,2.8l-17.3,10
			c-0.9,0.5-1.7,0.1-1.7-0.8C81.8,254.7,82.5,253.7,83.4,253.1z"/>
		<path id="elwcjvtz0f2h" class="st10" d="M25.9,185.9L71,159.8c0.9-0.5,1.6-0.1,1.6,0.8c-0.1,1.1-0.7,2.1-1.6,2.8l-45.1,26.1
			c-0.9,0.5-1.6,0.2-1.6-0.8C24.3,187.5,24.9,186.5,25.9,185.9z"/>
		<g id="elh7jypyflfq">
			<path id="elsvgd71imxd" class="st15" d="M25.9,185.9L71,159.8c0.9-0.5,1.6-0.1,1.6,0.8c-0.1,1.1-0.7,2.1-1.6,2.8l-45.1,26.1
				c-0.9,0.5-1.6,0.2-1.6-0.8C24.3,187.5,24.9,186.5,25.9,185.9z"/>
		</g>
		<path id="el7b9axzba71j" class="st10" d="M25.9,200.2l15.3-8.9c0.9-0.5,1.7-0.2,1.7,0.8c-0.1,1.1-0.7,2.2-1.7,2.8l-15.3,8.9
			c-0.9,0.5-1.6,0.1-1.6-0.8C24.3,201.9,24.9,200.8,25.9,200.2z"/>
		<g id="elxabu5pe92gq">
			<path id="elka7iew8v9v9" class="st15" d="M25.9,200.2l15.3-8.9c0.9-0.5,1.7-0.2,1.7,0.8c-0.1,1.1-0.7,2.2-1.7,2.8l-15.3,8.9
				c-0.9,0.5-1.6,0.1-1.6-0.8C24.3,201.9,24.9,200.8,25.9,200.2z"/>
		</g>
		<path id="el0zj1b3f3tgnj" class="st10" d="M25.9,214.6l15.3-8.9c0.9-0.5,1.7-0.2,1.7,0.8c-0.1,1.1-0.7,2.2-1.7,2.8l-15.3,8.9
			c-0.9,0.5-1.6,0.1-1.6-0.8C24.3,216.2,24.9,215.2,25.9,214.6z"/>
		<g id="el6vlqp8l2mok">
			<path id="elxenzicmfkli" class="st15" d="M25.9,214.6l15.3-8.9c0.9-0.5,1.7-0.2,1.7,0.8c-0.1,1.1-0.7,2.2-1.7,2.8l-15.3,8.9
				c-0.9,0.5-1.6,0.1-1.6-0.8C24.3,216.2,24.9,215.2,25.9,214.6z"/>
		</g>
		<path id="elw1txr59cta9" class="st10" d="M25.9,228.9l15.3-8.9c0.9-0.5,1.7-0.2,1.7,0.8c-0.1,1.1-0.7,2.2-1.7,2.8l-15.3,8.9
			c-0.9,0.5-1.6,0.1-1.6-0.8C24.3,230.5,24.9,229.5,25.9,228.9z"/>
		<g id="ely5ezp6dh51">
			<path id="elqq6bzqjjq2" class="st15" d="M25.9,228.9l15.3-8.9c0.9-0.5,1.7-0.1,1.7,0.8c-0.1,1.1-0.7,2.2-1.7,2.8l-15.3,8.9
				c-0.9,0.5-1.6,0.2-1.6-0.8C24.3,230.5,24.9,229.5,25.9,228.9z"/>
		</g>
		<path id="elkh5503w08" class="st10" d="M50.7,214.6l45.2-26.1c0.9-0.5,1.6-0.2,1.6,0.8c-0.1,1.1-0.7,2.1-1.6,2.8l-45.2,26.1
			c-0.9,0.5-1.6,0.2-1.6-0.8C49.2,216.2,49.8,215.2,50.7,214.6z"/>
		<path id="el3o8t00ngc5b" class="st10" d="M102.3,184.8l19.6-11.3c0.9-0.5,1.6-0.1,1.6,0.8c-0.1,1.1-0.7,2.1-1.6,2.8l-19.6,11.3
			c-0.9,0.5-1.6,0.1-1.6-0.8C100.7,186.4,101.3,185.4,102.3,184.8z"/>
		<path id="el0elyv356p3y5" class="st10" d="M25.9,243.2l15.3-8.9c0.9-0.5,1.7-0.2,1.7,0.8c-0.1,1.1-0.7,2.2-1.7,2.8l-15.3,8.9
			c-0.9,0.5-1.6,0.1-1.6-0.8C24.3,244.9,24.9,243.9,25.9,243.2z"/>
		<g id="elfhcgdq7ogvm">
			<path id="elhzpqtgjm3gb" class="st15" d="M25.9,243.2l15.3-8.9c0.9-0.5,1.7-0.2,1.7,0.8c-0.1,1.1-0.7,2.2-1.7,2.8l-15.3,8.9
				c-0.9,0.5-1.6,0.1-1.6-0.8C24.3,244.9,24.9,243.9,25.9,243.2z"/>
		</g>
		<path id="el9zsijw6lqs" class="st10" d="M77.5,156.1l19.6-11.3c0.9-0.5,1.7-0.1,1.7,0.8c-0.1,1.1-0.7,2.1-1.7,2.8l-19.6,11.3
			c-0.9,0.5-1.6,0.1-1.6-0.8C75.9,157.7,76.5,156.7,77.5,156.1z"/>
		<g id="elm0s061k5ioe">
			<path id="elobvns6t19x" class="st15" d="M77.5,156.1l19.6-11.3c0.9-0.5,1.7-0.1,1.7,0.8c-0.1,1.1-0.7,2.1-1.7,2.8l-19.6,11.3
				c-0.9,0.5-1.6,0.1-1.6-0.8C75.9,157.7,76.5,156.7,77.5,156.1z"/>
		</g>
		<path id="eltua6ishlzm" class="st7" d="M69.4,232.5l45.2-26.1c0.9-0.5,1.6-0.1,1.6,0.8c-0.1,1.1-0.7,2.1-1.6,2.8l-45.2,26.1
			c-0.9,0.5-1.6,0.1-1.6-0.8C67.8,234.1,68.4,233.1,69.4,232.5z"/>
		<path id="elcoxcx0z5u0q" class="st13" d="M95.4,231.8l45.2-26.1c0.9-0.5,1.7-0.1,1.7,0.8c-0.1,1.1-0.7,2.1-1.7,2.7l-45.2,26.1
			c-0.9,0.5-1.6,0.2-1.6-0.8C93.8,233.5,94.4,232.4,95.4,231.8z"/>
		<path id="el0dzyklzfr5c6" class="st7" d="M120.9,202.7l19.6-11.3c0.9-0.5,1.6-0.2,1.6,0.8c-0.1,1.1-0.7,2.1-1.6,2.8l-19.6,11.3
			c-0.9,0.5-1.6,0.2-1.6-0.8C119.4,204.3,120,203.3,120.9,202.7z"/>
		<path id="elj64h4y5uxch" class="st7" d="M120.9,259.5l19.6-11.3c0.9-0.5,1.6-0.2,1.6,0.8c-0.1,1.1-0.7,2.1-1.6,2.8l-19.6,11.3
			c-0.9,0.5-1.6,0.1-1.6-0.8C119.4,261.1,120,260.1,120.9,259.5z"/>
		<path id="elg6xt3dhyf6f" class="st10" d="M50.7,185.9l45.2-26.1c0.9-0.5,1.6-0.1,1.6,0.8c-0.1,1.1-0.7,2.1-1.6,2.8l-45.2,26.1
			c-0.9,0.5-1.6,0.1-1.6-0.8C49.2,187.5,49.8,186.5,50.7,185.9z"/>
		<g id="elwabvu2ag3k">
			<path id="el6nszbt3x2rn" class="st15" d="M50.7,185.9l45.2-26.1c0.9-0.5,1.6-0.1,1.6,0.8c-0.1,1.1-0.7,2.1-1.6,2.8l-45.2,26.1
				c-0.9,0.5-1.6,0.1-1.6-0.8C49.2,187.5,49.8,186.5,50.7,185.9z"/>
		</g>
		<path id="elmtgolirhews" class="st10" d="M102.3,156.1l19.6-11.3c0.9-0.5,1.6-0.2,1.6,0.8c-0.1,1.1-0.7,2.1-1.6,2.8l-19.6,11.3
			c-0.9,0.5-1.6,0.2-1.6-0.8C100.7,157.7,101.3,156.7,102.3,156.1z"/>
		<g id="elsi0l9n3ez8o">
			<path id="eldxutr4v3ny" class="st15" d="M102.3,156.1l19.6-11.3c0.9-0.5,1.6-0.2,1.6,0.8c-0.1,1.1-0.7,2.1-1.6,2.8l-19.6,11.3
				c-0.9,0.5-1.6,0.2-1.6-0.8C100.7,157.7,101.3,156.7,102.3,156.1z"/>
		</g>
		<g id="elmb6smwkwzmr">
			<path id="elhlzfy9do17k" class="st15" d="M50.7,214.6l45.2-26.1c0.9-0.5,1.6-0.2,1.6,0.8c-0.1,1.1-0.7,2.1-1.6,2.8l-45.2,26.1
				c-0.9,0.5-1.6,0.2-1.6-0.8C49.2,216.2,49.8,215.2,50.7,214.6z"/>
		</g>
		<g id="elzuivq9tlquh">
			<path id="elkssw21luwz9" class="st15" d="M102.3,184.8l19.6-11.3c0.9-0.5,1.6-0.1,1.6,0.8c-0.1,1.1-0.7,2.1-1.6,2.8l-19.6,11.3
				c-0.9,0.5-1.6,0.1-1.6-0.8C100.7,186.4,101.3,185.4,102.3,184.8z"/>
		</g>
	</g>
</g>
<g id="freepik--Icons--inject-203">
	<g id="freepik--Java--inject-203">
		<path id="eld9s3fm6zj5" class="st10" d="M204.9,64l-10.8,6.2l-10.8-1c-0.1,0-0.3,0-0.4,0.1c0.9-0.5,10.3-5.9,10.7-6.1
			c0.1-0.1,0.3-0.1,0.5-0.1L204.9,64z"/>
		<g id="ele9sxzvjzck8">
			<path id="elhe4ocju202" class="st16" d="M204.9,64l-10.8,6.2l-10.8-1c-0.1,0-0.3,0-0.4,0.1c0.9-0.5,10.3-5.9,10.7-6.1
				c0.1-0.1,0.3-0.1,0.5-0.1L204.9,64z"/>
		</g>
		<polygon id="elrg5bsq19es" class="st10" points="238.4,66.2 199.4,43.7 191.7,48.2 194.5,105.9 211.1,125.6 227.8,125.1 
			235.5,120.6 		"/>
		<g id="el0gcjtr6l2ld7">
			<polygon id="el1fcuna9zno8" class="st16" points="238.4,66.2 230.6,70.7 191.7,48.2 199.4,43.7 			"/>
		</g>
		<g id="eluw4iui1ec1">
			<polygon id="el33tw59xt775" class="st14" points="238.4,66.2 230.6,70.7 227.8,125.1 235.5,120.6 			"/>
		</g>
		<path id="eltyp9dnr3sqd" class="st10" d="M191.7,48.2l1.1,21.9l-9.5-0.8c-0.4,0-0.8,0.3-0.9,0.7c0,0.2,0.1,0.4,0.2,0.6l10.7,11.6
			l1.2,23.8l16.6,19.7l16.6-0.5l2.9-54.5L191.7,48.2z"/>
		<g id="el9f3zy4favu">
			<polygon id="eliij87smtgy" class="st16" points="211.1,65 226.6,74 224.4,118.8 211.1,119.8 			"/>
		</g>
		<polygon id="elyea7b80loid" class="st13" points="223,76.3 221.3,113 211.1,113.5 201,101.2 200.5,90.9 204.1,93 204.5,99.2 
			211.1,107.6 217.9,106.9 219,79.6 199.6,68.4 199.4,62.6 		"/>
	</g>
	<g id="freepik--CSS--inject-203">
		<path id="elbvxvb6gojxt" class="st10" d="M204.9,156.3l-10.8,6.2l-10.8-1c-0.1,0-0.3,0-0.4,0.1c0.9-0.5,10.3-5.9,10.7-6.1
			c0.1-0.1,0.3-0.1,0.5-0.1L204.9,156.3z"/>
		<polygon id="elh01ymkikoio" class="st10" points="238.4,158.4 199.4,135.9 191.7,140.4 194.5,198.2 211.1,217.9 227.8,217.4 
			235.5,212.9 		"/>
		<g id="el97c97qm5py">
			<polygon id="el8n4xq9wdslj" class="st17" points="238.4,158.4 230.6,162.9 227.8,217.4 235.5,212.9 			"/>
		</g>
		<path id="elvgfxawmr0r" class="st10" d="M191.7,140.4l1.1,21.9l-9.5-0.8c-0.4,0-0.8,0.3-0.9,0.7c0,0.2,0.1,0.4,0.2,0.6l10.7,11.6
			l1.2,23.8l16.6,19.7l16.6-0.5l2.9-54.5L191.7,140.4z"/>
		<g id="eler62ezq22ji">
			<path id="el5cnvc9967rp" class="st18" d="M191.7,140.4l1.1,21.9l-9.5-0.8c-0.4,0-0.8,0.3-0.9,0.7c0,0.2,0.1,0.4,0.2,0.6
				l10.7,11.6l1.2,23.8l16.6,19.7l16.6-0.5l2.9-54.5L191.7,140.4z"/>
		</g>
		<g id="el84dwi0sdzhw">
			<polygon id="elbzpep499oge" class="st19" points="211.1,157.3 226.6,166.2 224.4,211 211.1,212 			"/>
		</g>
		<polygon id="elg1lpq5iq2t" class="st13" points="199.4,154.9 199.6,160.7 219,171.9 218.5,183.2 200.1,172.6 200.4,178.4 
			218.3,188.7 217.9,199.2 211.1,199.8 204.5,191.4 204.1,185.2 200.5,183.1 201,193.5 211.1,205.8 221.3,205.2 223,168.5 		"/>
	</g>
	<g id="freepik--HTML--inject-203">
		<polygon id="elrxlyu81gsxq" class="st10" points="238.4,250.7 199.4,228.2 191.7,232.7 194.5,290.5 211.1,310.1 227.8,309.6 
			235.5,305.1 		"/>
		<g id="elez1236thul">
			<polygon id="el2t78sycbhid" class="st18" points="238.4,250.7 230.6,255.2 191.7,232.7 199.4,228.2 			"/>
		</g>
		<g id="el3jzzn4x688s">
			<polygon id="el0bwaueb2ion" class="st20" points="238.4,250.7 230.6,255.2 227.8,309.6 235.5,305.1 			"/>
		</g>
		<path id="elkwab0ovsu5" class="st10" d="M204.9,248.5l-10.8,6.2l-10.8-0.9c-0.1,0-0.3,0-0.4,0.1c0.9-0.5,10.3-5.9,10.7-6.1
			c0.1-0.1,0.3-0.1,0.5-0.1L204.9,248.5z"/>
		<g id="elj3a0f6n1py">
			<path id="elcs52uyolp2j" class="st18" d="M204.9,248.5l-10.8,6.2l-10.8-0.9c-0.1,0-0.3,0-0.4,0.1c0.9-0.5,10.3-5.9,10.7-6.1
				c0.1-0.1,0.3-0.1,0.5-0.1L204.9,248.5z"/>
		</g>
		<path id="els1wo6zh2h0s" class="st10" d="M191.7,232.7l1.1,21.9l-9.5-0.8c-0.4,0-0.8,0.3-0.9,0.7c0,0.2,0.1,0.4,0.2,0.6l10.7,11.6
			l1.2,23.8l16.6,19.7l16.6-0.5l2.9-54.5L191.7,232.7z"/>
		<g id="elsnpbwixqncc">
			<path id="elqdi5w89blcj" class="st21" d="M191.7,232.7l1.1,21.9l-9.5-0.8c-0.4,0-0.8,0.3-0.9,0.7c0,0.2,0.1,0.4,0.2,0.6
				l10.7,11.6l1.2,23.8l16.6,19.7l16.6-0.5l2.9-54.5L191.7,232.7z"/>
		</g>
		<g id="elvbeo4lfb5vk">
			<polygon id="elkp2fdimdm8" class="st22" points="211.1,249.5 226.6,258.5 224.4,303.3 211.1,304.3 			"/>
		</g>
		<polygon id="elxormqdq9q1j" class="st13" points="223,260.8 199.4,247.1 200.4,270.6 218.3,281 217.9,291.4 211.1,292.1 
			204.5,283.7 204.1,277.5 200.5,275.4 201,285.7 211.1,298 221.3,297.5 222.2,277.6 203.8,267 203.3,255.1 222.7,266.2 		"/>
	</g>
</g>

</svg>
