<?xml version="1.0" encoding="utf-8"?>
<!-- Generator: Adobe Illustrator 25.3.0, SVG Export Plug-In . SVG Version: 6.00 Build 0)  -->
<svg version="1.1" id="Capa_1" xmlns="http://www.w3.org/2000/svg" xmlns:xlink="http://www.w3.org/1999/xlink" x="0px" y="0px"
	 width="373.4px" height="132.8px" viewBox="0 0 373.4 132.8" style="enable-background:new 0 0 373.4 132.8;" xml:space="preserve"
	>
<style type="text/css">
	.st0{fill:none;stroke:#C0AF3F;stroke-width:2;stroke-miterlimit:10;}
	.st1{fill:#C0AF3F;}
	.st2{fill:#AF454B;stroke:#AF454B;stroke-miterlimit:10;}
</style>
<line class="st0" x1="290.9" y1="69.3" x2="115" y2="69.3"/>
<circle class="st1" cx="326.8" cy="66.1" r="46.6"/>
<path class="st2" d="M286.3,66.1c0,22.3,18.2,40.5,40.5,40.5c22.3,0,40.5-18.2,40.5-40.5s-18.2-40.5-40.5-40.5
	C304.5,25.6,286.3,43.8,286.3,66.1z M294.3,66.1c0-17.9,14.6-32.5,32.5-32.5s32.5,14.6,32.5,32.5s-14.6,32.5-32.5,32.5
	S294.3,84,294.3,66.1z"/>
<circle class="st2" cx="326.7" cy="65.5" r="35.2"/>
<path class="st0" d="M321.5,68.3"/>
</svg>
