<?xml version="1.0" encoding="utf-8"?>
<!-- Generator: Adobe Illustrator 25.3.0, SVG Export Plug-In . SVG Version: 6.00 Build 0)  -->
<svg version="1.1" xmlns="http://www.w3.org/2000/svg" xmlns:xlink="http://www.w3.org/1999/xlink" x="0px" y="0px"
	 viewBox="0 0 2500 2500" style="enable-background:new 0 0 2500 2500;" xml:space="preserve">
<style type="text/css">
	.st0{display:none;}
	.st1{display:inline;fill:#F0DB4F;}
	.st2{fill:#323330;}
	.st3{display:inline;fill:#323330;}
	.st4{display:inline;}
	.st5{fill:#323330;stroke:#323330;stroke-width:30;stroke-miterlimit:10;}
</style>
<g id="Capa_1" class="st0">
	<path class="st1" d="M0,0h2500v2500H0V0z"/>
	<path class="st2" d="M2295.4,1903.8c-18.3-114.1-92.7-209.8-313-299.2c-76.5-35.2-161.8-60.4-187.3-118.3
		c-9-33.7-10.2-52.8-4.5-73.2c16.4-66.3,95.5-87,158.3-68c40.4,13.5,78.7,44.7,101.7,94.3c107.9-69.9,107.7-69.4,183-117.4
		c-27.6-42.8-42.3-62.5-60.4-80.8c-64.9-72.5-153.3-109.8-294.7-106.9c-24.5,3.1-49.2,6.4-73.7,9.5
		c-70.6,17.8-137.8,54.9-177.3,104.6c-118.3,134.3-84.6,369.3,59.4,466c141.9,106.5,350.3,130.7,376.9,230.3
		c25.9,121.9-89.6,161.4-204.4,147.3c-84.6-17.6-131.7-60.6-182.5-138.8c-93.6,54.2-93.6,54.2-189.9,109.6
		c22.8,49.9,46.8,72.5,85.1,115.7c181.1,183.7,634.3,174.7,715.5-103.4C2291.1,2065.6,2313,2001.9,2295.4,1903.8z M1359.1,1149
		h-233.8c0,202-0.9,402.6-0.9,604.6c0,128.6,6.7,246.4-14.3,282.6c-34.2,71.1-122.9,62.3-163.3,48.5c-41.1-20.2-62-49-86.3-89.6
		c-6.7-11.6-11.6-20.7-13.3-21.4c-63.4,38.7-126.7,77.7-190.1,116.4c31.6,64.9,78.2,121.2,137.8,157.8
		c89.1,53.5,208.9,69.9,334.1,41.1c81.5-23.8,151.9-73,188.7-147.8c53.2-98.1,41.8-217,41.3-348.4
		C1360.3,1578.4,1359.1,1364.1,1359.1,1149L1359.1,1149z"/>
</g>
<g id="Capa_1_copia" class="st0">
	<path class="st1" d="M0,0h2500v2500H0V0z"/>
	<path class="st3" d="M2295.4,1903.8c-18.3-114.1-92.7-209.8-313-299.2c-76.5-35.2-161.8-60.4-187.3-118.3
		c-9-33.7-10.2-52.8-4.5-73.2c16.4-66.3,95.5-87,158.3-68c40.4,13.5,78.7,44.7,101.7,94.3c107.9-69.9,107.7-69.4,183-117.4
		c-27.6-42.8-42.3-62.5-60.4-80.8c-64.9-72.5-153.3-109.8-294.7-106.9c-24.5,3.1-49.2,6.4-73.7,9.5
		c-70.6,17.8-137.8,54.9-177.3,104.6c-118.3,134.3-84.6,369.3,59.4,466c141.9,106.5,350.3,130.7,376.9,230.3
		c25.9,121.9-89.6,161.4-204.4,147.3c-84.6-17.6-131.7-60.6-182.5-138.8c-93.6,54.2-93.6,54.2-189.9,109.6
		c22.8,49.9,46.8,72.5,85.1,115.7c181.1,183.7,634.3,174.7,715.5-103.4C2291.1,2065.6,2313,2001.9,2295.4,1903.8z"/>
	<g id="Capa_3" class="st4">
		<polygon class="st2" points="604.7,1154.8 833.3,1154.8 1012.2,1944.8 1191.1,1154.8 1419.7,1154.8 1171.7,2302.5 852.6,2302.5 		
			"/>
	</g>
</g>
<g id="Capa_4">
	<g>
		<path class="st5" d="M547.9,741.1c1.1,73.7,43.2,104,93.2,104c35.4,0,57.3-6.8,75.2-15.5l8.4,39c-16.8,8.7-47.1,19.2-90.4,19.2
			c-83.6,0-133.6-61.3-133.6-151.1c0-91,48.3-161.6,128-161.6c88.1,0,111.7,85.5,111.7,140.6c0,11.1-1.1,19.8-2.2,25.4H547.9z
			 M692.7,702.1c0.6-34.1-12.9-87.9-68.5-87.9c-50,0-71.8,50.2-75.8,87.9H692.7z"/>
		<path class="st5" d="M801.6,674.9c0-35.3-1.1-65-2.2-92.9h43.2l1.7,58.8h1.7c12.9-40.3,43.2-65.6,75.8-65.6c5.6,0,9.5,0,13.5,1.2
			v51.4c-4.5-1.2-9.5-1.9-16.3-1.9c-35.4,0-59.5,29.1-66.2,70c-1.7,7.4-2.2,16.7-2.2,24.8v160.4h-48.8V674.9z"/>
		<path class="st5" d="M1173.1,809.2c0,26,1.1,51.4,3.9,71.8h-44.3l-4.5-37.8h-1.1c-15.2,22.9-44.3,44.6-83.1,44.6
			c-54.4,0-83.1-43.4-83.1-86.1c0-72.5,58.4-112.1,163.3-110.9v-6.8c0-24.8-6.7-69.4-61.7-69.4c-25.3,0-52.2,8.7-70.7,22.3
			l-11.2-35.9c22.5-16.1,55.6-26,89.2-26c83.1,0,103.3,62.6,103.3,122.6V809.2z M1125.4,728.7c-53.9-1.9-115.1,8.7-115.1,66.9
			c0,35.9,21.9,52,46.6,52c35.9,0,57.8-24.8,66.2-50.2c1.1-6.2,2.2-11.8,2.2-17.3V728.7z"/>
		<path class="st5" d="M1627.7,495.3V582h70.7v40.9h-70.7v161.6c0,37.2,9.5,58.2,37,58.2c12.9,0,21.9-1.9,28.6-3.7l2.2,40.9
			c-9.5,5-24.7,8.1-44.3,8.1c-22.5,0-41.5-8.7-53.3-22.9c-12.9-17.3-18.5-43.4-18.5-78.7V622.8h-42.1V582h42.1v-72.5L1627.7,495.3z"
			/>
		<path class="st5" d="M1809.5,497.1c0,18.6-12.4,33.4-31.4,33.4c-18,0-30.3-14.9-29.7-33.4c-0.6-18.6,12.3-34.1,30.3-34.1
			S1809,477.9,1809.5,497.1z M1754,881.1V582h48.8v299.1H1754z"/>
		<path class="st5" d="M2076.1,809.2c0,26,1.1,51.4,3.9,71.8h-44.3l-4.5-37.8h-1.1c-15.2,22.9-44.3,44.6-83.1,44.6
			c-54.4,0-83.1-43.4-83.1-86.1c0-72.5,58.4-112.1,163.3-110.9v-6.8c0-24.8-6.7-69.4-61.7-69.4c-25.3,0-52.2,8.7-70.7,22.3
			l-11.2-35.9c22.5-16.1,55.6-26,89.2-26c83.1,0,103.3,62.6,103.3,122.6V809.2z M2028.4,728.7c-53.9-1.9-115.1,8.7-115.1,66.9
			c0,35.9,21.9,52,46.6,52c35.9,0,57.8-24.8,66.2-50.2c1.1-6.2,2.2-11.8,2.2-17.3V728.7z"/>
		<path class="st5" d="M2155.8,662.5c0-31-1.1-56.4-2.2-80.5h43.8l2.2,48.9h1.7c13.5-27.9,44.9-55.7,89.8-55.7
			c37,0,95.4,24.8,95.4,127v179h-48.8V708.9c0-48.9-16.3-89.2-62.9-89.2c-32.6,0-57.3,25.4-66.2,55.7c-2.2,6.8-3.9,16.1-3.9,25.4
			v180.2h-48.8V662.5z"/>
	</g>
	<path class="st2" d="M1534.6,751.5c-7.3-45.6-37.1-83.9-125.2-119.7c-30.6-14.1-64.7-24.1-74.9-47.3c-3.6-13.5-4.1-21.1-1.8-29.3
		c6.6-26.5,38.2-34.8,63.3-27.2c16.2,5.4,31.5,17.9,40.7,37.7c43.2-27.9,43.1-27.8,73.2-47c-11-17.1-16.9-25-24.1-32.3
		c-26-29-61.3-43.9-117.9-42.8c-9.8,1.2-19.7,2.6-29.5,3.8c-28.2,7.1-55.1,22-70.9,41.8c-47.3,53.7-33.8,147.7,23.8,186.4
		c56.7,42.6,140.1,52.3,150.8,92.1c10.4,48.8-35.8,64.5-81.7,58.9c-33.8-7-52.7-24.2-73-55.5c-37.5,21.7-37.5,21.7-75.9,43.8
		c9.1,20,18.7,29,34,46.3c72.4,73.5,253.7,69.9,286.2-41.3C1532.9,816.3,1541.7,790.8,1534.6,751.5z"/>
	<polygon class="st2" points="183.3,447.5 274.8,447.5 346.3,763.5 417.9,447.5 509.3,447.5 410.1,906.6 282.5,906.6 	"/>
</g>
</svg>
